<svg id="Layer_1" data-name="Layer 1" xmlns="http://www.w3.org/2000/svg" viewBox="0 0 1644.33 428.72"><defs><style>.cls-1{isolation:isolate;}.cls-2{fill:#a80109;}</style></defs><title>VSPbanner</title><g class="cls-1"><g class="cls-1"><path class="cls-2" d="M302.3,205.17a20,20,0,0,0-1.37-2,17.16,17.16,0,0,1-1.1-1.5,2.37,2.37,0,0,1-.69-1.36,2.49,2.49,0,0,0-.68-1.36,3,3,0,0,0-2.48-1.49,3,3,0,0,0-2.47.68q-2.2,2.18.83,4.89a2.32,2.32,0,0,0,1.1.68,2.58,2.58,0,0,1,1.09.68l1,1a5.92,5.92,0,0,0,1.52.95c-2.75,1.09-5.41,2.14-8,3.13s-5.13,2-7.69,2.86a4.17,4.17,0,0,0,.82.68,2.39,2.39,0,0,1,.55.4,32.74,32.74,0,0,0,3.3,1.09c1.28.37,1.74,1.27,1.37,2.72a8.26,8.26,0,0,1-1.23,3.13,16.7,16.7,0,0,1-2.34,2.85c-1.28,1.27-1.88,2.27-1.78,3s1,1.82,2.88,3.27a109.8,109.8,0,0,1-11.95.41q-5.62-.15-11.94-.14-1.38-5.16-2.89-10.2c-1-3.35-2-6.84-2.88-10.47q-1.38-5.16-2.88-10.19A75.64,75.64,0,0,1,252,188.31,43.27,43.27,0,0,0,249.16,178a76.54,76.54,0,0,1-3.43-10.07q-1.65-5.43-3-10.46T240,147q-1.38-5.16-2.89-10.34c-1-3.44-2-6.88-2.88-10.33q-1.38-5.43-3-10.47t-3-10.2q-1.38-5.43-2.89-10.74c-1-3.53-2-7.11-2.88-10.74l-5.77-20.39q-1.38-5.16-2.88-10.33t-2.88-10.61h33.23q9.06,33.45,18,66.49t17.71,66.75h.82q.82-3,1.65-5.57a50.82,50.82,0,0,0,1.38-5.3c.91-3.09,1.69-6,2.33-8.84s1.33-5.67,2.06-8.57a26.63,26.63,0,0,1,1.51-5,17.84,17.84,0,0,0,1.24-5,21.15,21.15,0,0,1,1.23-5.3,33.41,33.41,0,0,0,1.51-5.58,45.37,45.37,0,0,0,1.38-5c.36-1.72.82-3.48,1.37-5.3l2.47-10.6c.37-1.63.82-3.31,1.37-5a50.36,50.36,0,0,0,1.38-5.31q.82-2.72,1.51-5.43t1.23-5.44Q305,82,305.73,79.4c.46-1.72.87-3.48,1.24-5.3q1.92-6.8,3.57-13.59t3.57-13.6a25.82,25.82,0,0,1,1.37-4.08H341.3c.18.37.36.73.55,1.09s.36.73.55,1.09a15.1,15.1,0,0,0,2.2-1.36c.72-.55,1.73-1.27,3-2.18a21.39,21.39,0,0,0-.28,3,4.73,4.73,0,0,1-.55,2.18Q339.65,73,332.24,99t-14.83,52.35q-2.48,8.7-4.67,17.4t-4.95,17.4c-.91,3.09-1.74,6.17-2.47,9.25A83.38,83.38,0,0,1,302.3,205.17Zm-75-139.5a.78.78,0,0,1-.27-.54.79.79,0,0,0-.28-.55,1.08,1.08,0,0,1-.82-.27,1.13,1.13,0,0,0-.82-.27,2.08,2.08,0,0,0-.41.54,2.3,2.3,0,0,1-.42.55,3.3,3.3,0,0,1,.83.54,1.11,1.11,0,0,0,.82.27,1.23,1.23,0,0,0,.55-.13A1.92,1.92,0,0,1,227.32,65.67Zm12.36-7.88a15.05,15.05,0,0,0,2.89-3A9,9,0,0,0,242.7,51a9.48,9.48,0,0,0-2.88,2.45C239.55,54,239.5,55.43,239.68,57.79Zm12.91,54.92a1.12,1.12,0,0,1,.14-.54,1.21,1.21,0,0,0,.14-.54,1.78,1.78,0,0,1-1.79-.41L249.84,110a3.31,3.31,0,0,0-1.37-.82,2.14,2.14,0,0,0-1.92.54c-2.2,1.82-2.57,3.9-1.1,6.26,1.28-.55,2.52-1.09,3.71-1.63S251.49,113.26,252.59,112.71Zm26.64,105.78c-.73,1.09-1,1.73-.82,1.91,0,.54.45.81,1.37.81.73,0,1.1-.45,1.1-1.36a4.61,4.61,0,0,0-.69-.54A6.6,6.6,0,0,1,279.23,218.49Zm2.2-39.7c.18,2.54.45,4.08.82,4.62s1.56,1,3.57,1.36C286,181.88,284.54,179.88,281.43,178.79Zm4.67,15a2.78,2.78,0,0,1,.41-.68,3.15,3.15,0,0,0,.41-.68,5.46,5.46,0,0,0-1.1-.41,5.46,5.46,0,0,1-1.1-.41l-.55.55a6.55,6.55,0,0,0,1,.81A7.3,7.3,0,0,1,286.1,193.75Zm4.67-7.07q-3.86-2.18-5.5,1.36a1.23,1.23,0,0,0,.14,1.22c.28.45.5.68.69.68C288.66,190.48,290.22,189.4,290.77,186.68Zm-.28,19c1.83-1.09,2-2.35.55-3.81a6.11,6.11,0,0,0-1.92-2c-.74-.45-1.65-.31-2.75.41C286.74,203.17,288.11,205,290.49,205.71Zm3,23.66a8.64,8.64,0,0,1-2.06.27h-1.78v-.82a11.16,11.16,0,0,1,1.78-.95C292.09,227.6,292.78,228.1,293.51,229.37Zm8.79-102.79c-1.47.37-2.75.73-3.84,1.09s-1.65,1.45-1.65,3.26c2.38.37,3.84.37,4.39,0S302.12,129.12,302.3,126.58Zm-4.39,37.8h1.37v-2.45c0-.18-.46-.27-1.37-.27Zm3.57-6a1.41,1.41,0,0,1-.69-.55q-.14-.27-.69-.27a.44.44,0,0,0-.41.27c-.09.19-.32.28-.68.28a5.63,5.63,0,0,0,1.09,1.35Q300.37,159.48,301.48,158.4Zm37.07-93.27a7.37,7.37,0,0,1,.83-1.09,3.41,3.41,0,0,0,.55-.81,84.24,84.24,0,0,1-.55-1.09,2.27,2.27,0,0,1-1,.27q-.42,0-.69.54A6.44,6.44,0,0,0,338.55,65.13Z" transform="translate(-6.93 -41.47)"/><path class="cls-2" d="M457.47,152.42l.55,1.08c.18.37.37.73.55,1.09.36,2.54.87,4.08,1.51,4.62s2.24.64,4.81.27a10.71,10.71,0,0,0,1.92-.54v2a12.06,12.06,0,0,0,.27,2.31c-1.46-.72-2.79-1.36-4-1.9a4.08,4.08,0,0,0-4,.54,3.89,3.89,0,0,0-1.65,3,10.11,10.11,0,0,0,.55,3.27,4,4,0,0,1-4.39.54,5.41,5.41,0,0,0-4.95.27q2.74,3.81,5.91,3.4a24.3,24.3,0,0,1,6.73.14,16.55,16.55,0,0,0-.83-1.5,8,8,0,0,1-.55-.95,18.68,18.68,0,0,0,2.47.82,20.16,20.16,0,0,1,2.48.81q-8.25,29.37-16.48,57.92h-33q14.55-47,28.7-93.4t28.43-93.41h32.13Q519.55,89.89,534,136.1t29.25,93.54q-8.79.54-17.17.27t-16.89,0H460.22q1.92-7.87,4-15.36t4-15.09h52.46q-8-27.19-15.93-53.84T488.78,91.78H488q-4.68,15.77-9.07,31.27t-9.06,31.27c-1.28.36-2.47.72-3.57,1.09s-2.29.72-3.57,1.08l-2.61-2.58c-.82-.82-.51-2.31,1-4.49a2,2,0,0,1-.82.28,2.14,2.14,0,0,0-.83.27,6.38,6.38,0,0,0-1,1.22c-.27.46-.59.95-1,1.5a3,3,0,0,1-1-.14,1.27,1.27,0,0,0-1,.14,8.85,8.85,0,0,0-3.57,2,4.4,4.4,0,0,1-4.12,1c-.92-.18-1.47.32-1.65,1.49a1.87,1.87,0,0,0,1.1,2.31,2.86,2.86,0,0,1,2.2,2.72,17,17,0,0,0,.13,2.32,16.61,16.61,0,0,1,.14,2.31c4,0,6.13-1.45,6.32-4.35a3.67,3.67,0,0,0-1.1-3.4q-1.38-1.23-5.77-2a21.16,21.16,0,0,1,3.85-.27Q457.75,156.77,457.47,152.42Zm41.2-87.29c-.92-.91-1.47-1.36-1.65-1.36-.19-.18-.41-.14-.69.13a1.35,1.35,0,0,0-.41,1c-.18,0-.18.13,0,.4a3.68,3.68,0,0,0,.55.68,1.71,1.71,0,0,0,1-.27A5.57,5.57,0,0,1,498.67,65.13Z" transform="translate(-6.93 -41.47)"/><path class="cls-2" d="M625,44.46h30.48a14.61,14.61,0,0,1,.55,3.27V98.85a11.39,11.39,0,0,0,.14,1.49c.09.64,0,1-.41,1.23-2.2,1.27-3,2.44-2.47,3.53a17.8,17.8,0,0,0,2.47,3.54c.55.72.5,1.72-.14,3a7,7,0,0,1-2.88,3,2.51,2.51,0,0,1-1.38.68,4.94,4.94,0,0,0-1.37.41,11.83,11.83,0,0,0-3.84,1.9c-.55.54-.65,1.81-.28,3.81q.27,3.81-1.65,5.71a5.28,5.28,0,0,0-1.64,5.43,16,16,0,0,1,1,4.76,4.56,4.56,0,0,0,2.88,4,10,10,0,0,1,1.51,1.22l1.51,1.5H656v53h72.51v32.63H625.27a23.56,23.56,0,0,0-.13-2.58,21.42,21.42,0,0,1-.14-2.59q0-15.5.14-31t.13-31c0-1.27,0-2.45-.13-3.54s-.14-2.17-.14-3.26a3.24,3.24,0,0,1,.41-1.36,14.45,14.45,0,0,1,1-1.63c0-.18-.18-.45-.55-.82a4,4,0,0,1-.82-1.09,3.24,3.24,0,0,1-.14-1.63,8.57,8.57,0,0,0,.14-1.36V44.46Zm1.92,103.88a7.12,7.12,0,0,0,3.16.27,8.51,8.51,0,0,0,2.33-2.45,10,10,0,0,1-1.92-1.22,18.61,18.61,0,0,0-2.2-1.5c-.36,1.09-.64,2-.82,2.72S627.1,147.61,626.92,148.34Zm5.77,12a5.6,5.6,0,0,0-1.1,2.18.64.64,0,0,0,.55.68,6.37,6.37,0,0,1,1.1.4,7.46,7.46,0,0,1,.55-.95,1.66,1.66,0,0,0,.27-1C634.24,161.48,633.79,161,632.69,160.3Zm.27-50.58-.55,1.09a13.5,13.5,0,0,0,1.24.54c.45.19.87.37,1.24.55l.55-.55Zm6,82.94a16.47,16.47,0,0,1-2.2-1.5,2.43,2.43,0,0,0-1.37-.68c-.37-.17-.79,0-1.24.41L633,192.12c.37.36.78.81,1.24,1.35a4,4,0,0,0,1.24,1.09c.36.19.82.05,1.37-.41A17.55,17.55,0,0,1,639,192.66Zm1.09-50.31c-2-.36-3.2-.4-3.57-.13a9.52,9.52,0,0,0-1.64,3.12c2,.37,3.2.41,3.57.14A9.58,9.58,0,0,0,640.1,142.35Zm2.75,21.49c-.55-.37-1-.68-1.37-1a1,1,0,0,0-1.1-.13c-.19,0-.74.45-1.65,1.36l1,.95a1.33,1.33,0,0,0,1,.41,1.17,1.17,0,0,0,1-.55A5.07,5.07,0,0,1,642.85,163.84Zm2.2-11.42c-2.38-1.64-3.76-1.36-4.12.81a.76.76,0,0,0,.27.54l.55.55a15.5,15.5,0,0,1,1.65-.95A17.44,17.44,0,0,0,645.05,152.42Zm1.65-57.65-.83-1.63a1.58,1.58,0,0,1-.69.4c-.27.1-.41.23-.41.41-.18.18,0,.73.55,1.63a3,3,0,0,0,.69-.4A3,3,0,0,1,646.7,94.77Zm6.59-43.24a11.43,11.43,0,0,0-1.1-1,7.82,7.82,0,0,0-1.1-.68l-.55.54a.82.82,0,0,0-.27.55.25.25,0,0,1-.28.27,1.92,1.92,0,0,0,1.65,1.63.82.82,0,0,0,.55-.27ZM661,200a4.89,4.89,0,0,1-1.24-1.09,1.19,1.19,0,0,0-1-.54c-.19-.18-.46-.14-.82.14s-.55.5-.55.68c.36,1.08.73,1.72,1.09,1.9a1,1,0,0,0,1.1-.14C660,200.68,660.43,200.37,661,200Zm25,6.8c-.37-2.18-1.74-3.26-4.12-3.26q-3.3.54-2.75,3.53.55,3.27,3.57,2.72Q686,209.25,686,206.8Z" transform="translate(-6.93 -41.47)"/><path class="cls-2" d="M793.9,42.83h30.48q.27,6,.14,11.83t-.14,12.1v48.4h56V42.83h30.76V180.42a60.47,60.47,0,0,1-6.45,1.36q-3.45.56-4.81,4.62c.91.37,1.65.68,2.2,1a4.31,4.31,0,0,0,1.92.4,10.31,10.31,0,0,0,2.61-.4c1-.28,2.51-.59,4.53-1v43.24H880.41q0-4.08-.14-8a80,80,0,0,1,.14-8,76,76,0,0,0,.14-7.89c-.1-2.72-.14-5.44-.14-8.16v-48.4H824.66v80.49H794.45q2.74-2.71,5.08-4.89c1.55-1.45,3.25-3.08,5.08-4.9H793.9Zm3.29,77.23a8.1,8.1,0,0,1,1.1-2,7,7,0,0,0,.83-1.23,1.46,1.46,0,0,0-.69-1.08,2.06,2.06,0,0,0-1.24-.55,4.32,4.32,0,0,0-1.09.82,4,4,0,0,0-.83,1.09,1.86,1.86,0,0,0,.69,1.22A6.65,6.65,0,0,1,797.19,120.06Zm3,53a33.18,33.18,0,0,0,3.15-1.77,4.78,4.78,0,0,0,2.06-2.85,6.44,6.44,0,0,0-.13-1.23,2.44,2.44,0,0,0-.69-1.22c-.18-.18-.55-.22-1.1-.13a4.86,4.86,0,0,0-1.37.4,9.17,9.17,0,0,0-2.06,3A5,5,0,0,0,800.22,173.08Zm12.63-52.75a1.61,1.61,0,0,0-1.1-.55,11.7,11.7,0,0,1-1.37,2.45,1.59,1.59,0,0,1,1.1.55A12.48,12.48,0,0,0,812.85,120.33ZM828,143.71c-.18-.17-.32-.27-.41-.27s-.23-.09-.41-.27a.8.8,0,0,1-.55-.27,2.62,2.62,0,0,0-.69.95,7.55,7.55,0,0,1-.41,1,.8.8,0,0,1,.55.27.34.34,0,0,0,.55,0,1.52,1.52,0,0,0,.69-.54A4.17,4.17,0,0,1,828,143.71Zm54.38-44.86c2.2.36,3.44.36,3.71,0s.23-1.54-.14-3.54Z" transform="translate(-6.93 -41.47)"/><path class="cls-2" d="M1024.6,152.42c.18.36.36.72.55,1.08s.36.73.55,1.09q.54,3.81,1.51,4.62c.63.55,2.24.64,4.8.27a10.71,10.71,0,0,0,1.92-.54v2a11.41,11.41,0,0,0,.28,2.31c-1.47-.72-2.79-1.36-4-1.9a4.1,4.1,0,0,0-4,.54,3.91,3.91,0,0,0-1.64,3,10.11,10.11,0,0,0,.55,3.27,4,4,0,0,1-4.4.54,5.38,5.38,0,0,0-4.94.27q2.75,3.81,5.9,3.4a24.29,24.29,0,0,1,6.73.14c-.37-.73-.64-1.23-.82-1.5a6.83,6.83,0,0,1-.55-.95,18.21,18.21,0,0,0,2.47.82,20.07,20.07,0,0,1,2.47.81q-8.24,29.37-16.48,57.92H982.58q14.55-47,28.7-93.4t28.42-93.41h32.13q14.84,47.06,29.25,93.27t29.25,93.54q-8.79.54-17.16.27t-16.89,0h-68.94q1.92-7.87,4-15.36t4-15.09h52.45q-8-27.19-15.93-53.84t-15.92-53.84h-.83q-4.66,15.77-9.06,31.27T1037,154.32c-1.29.36-2.48.72-3.58,1.09s-2.29.72-3.57,1.08l-2.6-2.58c-.83-.82-.51-2.31,1-4.49a2.08,2.08,0,0,1-.83.28,2.11,2.11,0,0,0-.82.27,6,6,0,0,0-1,1.22c-.28.46-.6.95-1,1.5a3.15,3.15,0,0,1-1-.14,1.28,1.28,0,0,0-1,.14,8.85,8.85,0,0,0-3.57,2,4.4,4.4,0,0,1-4.12,1c-.91-.18-1.46.32-1.64,1.49a1.86,1.86,0,0,0,1.09,2.31,2.85,2.85,0,0,1,2.2,2.72,15.42,15.42,0,0,0,.14,2.32,16.61,16.61,0,0,1,.14,2.31c4,0,6.13-1.45,6.31-4.35a3.67,3.67,0,0,0-1.09-3.4c-.92-.82-2.85-1.5-5.77-2a21,21,0,0,1,3.84-.27Q1024.86,156.77,1024.6,152.42Zm41.19-87.29c-.92-.91-1.47-1.36-1.65-1.36-.18-.18-.41-.14-.68.13a1.31,1.31,0,0,0-.41,1c-.19,0-.19.13,0,.4a3.67,3.67,0,0,0,.54.68,1.75,1.75,0,0,0,1-.27A5.26,5.26,0,0,1,1065.79,65.13Z" transform="translate(-6.93 -41.47)"/><path class="cls-2" d="M1192.12,44.46h30.49a15.23,15.23,0,0,1,.55,3.27V98.85a11.06,11.06,0,0,0,.13,1.49c.09.64,0,1-.41,1.23-2.19,1.27-3,2.44-2.47,3.53a17.8,17.8,0,0,0,2.47,3.54c.55.72.5,1.72-.13,3a7.06,7.06,0,0,1-2.89,3,2.48,2.48,0,0,1-1.37.68,4.84,4.84,0,0,0-1.37.41,11.92,11.92,0,0,0-3.85,1.9q-.82.81-.27,3.81.27,3.81-1.65,5.71a5.27,5.27,0,0,0-1.65,5.43,15.73,15.73,0,0,1,1,4.76,4.56,4.56,0,0,0,2.88,4,10,10,0,0,1,1.52,1.22l1.51,1.5h6.59v53h72.5v32.63H1192.4a23.49,23.49,0,0,0-.14-2.58,23.68,23.68,0,0,1-.14-2.59q0-15.5.14-31t.14-31c0-1.27-.05-2.45-.14-3.54s-.14-2.17-.14-3.26a3.13,3.13,0,0,1,.42-1.36,13.09,13.09,0,0,1,1-1.63c0-.18-.19-.45-.55-.82a4,4,0,0,1-.83-1.09,3.24,3.24,0,0,1-.13-1.63,8.41,8.41,0,0,0,.13-1.36V44.46Zm1.93,103.88a7.08,7.08,0,0,0,3.15.27,8.49,8.49,0,0,0,2.34-2.45,9.72,9.72,0,0,1-1.92-1.22,19.49,19.49,0,0,0-2.2-1.5c-.37,1.09-.64,2-.83,2.72Zm5.76,12a5.6,5.6,0,0,0-1.1,2.18.64.64,0,0,0,.55.68,6.09,6.09,0,0,1,1.1.4,8.89,8.89,0,0,1,.55-.95,1.66,1.66,0,0,0,.28-1C1201.37,161.48,1200.91,161,1199.81,160.3Zm.28-50.58-.55,1.09a13.25,13.25,0,0,0,1.23.54c.46.19.87.37,1.24.55l.55-.55Zm6,82.94a16.47,16.47,0,0,1-2.2-1.5,2.43,2.43,0,0,0-1.37-.68c-.37-.17-.78,0-1.24.41l-1.23,1.23q.54.54,1.23,1.35a4.12,4.12,0,0,0,1.24,1.09c.36.19.82.05,1.37-.41A17.55,17.55,0,0,1,1206.13,192.66Zm1.1-50.31c-2-.36-3.21-.4-3.57-.13a9.46,9.46,0,0,0-1.65,3.12c2,.37,3.2.41,3.57.14A9.51,9.51,0,0,0,1207.23,142.35Zm2.74,21.49c-.54-.37-1-.68-1.37-1a1,1,0,0,0-1.1-.13c-.18,0-.73.45-1.64,1.36l1,.95a1.32,1.32,0,0,0,1,.41,1.19,1.19,0,0,0,1-.55A5,5,0,0,1,1210,163.84Zm2.2-11.42c-2.38-1.64-3.75-1.36-4.12.81a.74.74,0,0,0,.28.54l.55.55a15.38,15.38,0,0,1,1.64-.95A17.44,17.44,0,0,0,1212.17,152.42Zm1.65-57.65-.82-1.63a1.7,1.7,0,0,1-.69.4c-.28.1-.41.23-.41.41-.19.18,0,.73.55,1.63a2.86,2.86,0,0,0,.68-.4A3,3,0,0,1,1213.82,94.77Zm6.59-43.24a10.34,10.34,0,0,0-1.1-1,7.29,7.29,0,0,0-1.1-.68l-.54.54a.79.79,0,0,0-.28.55.24.24,0,0,1-.27.27,1.91,1.91,0,0,0,1.64,1.63.8.8,0,0,0,.55-.27ZM1228.1,200a4.66,4.66,0,0,1-1.23-1.09,1.21,1.21,0,0,0-1-.54c-.18-.18-.46-.14-.82.14s-.55.5-.55.68c.37,1.08.73,1.72,1.1,1.9a1,1,0,0,0,1.1-.14C1227.09,200.68,1227.55,200.37,1228.1,200Zm25,6.8c-.37-2.18-1.74-3.26-4.12-3.26-2.19.36-3.11,1.54-2.74,3.53q.54,3.27,3.57,2.72Q1253.09,209.25,1253.09,206.8Z" transform="translate(-6.93 -41.47)"/><path class="cls-2" d="M1350.86,44.46h30.49a15.23,15.23,0,0,1,.55,3.27V98.85a11.06,11.06,0,0,0,.13,1.49c.09.64,0,1-.41,1.23-2.2,1.27-3,2.44-2.47,3.53a17.8,17.8,0,0,0,2.47,3.54c.55.72.5,1.72-.14,3a7,7,0,0,1-2.88,3,2.48,2.48,0,0,1-1.37.68,5,5,0,0,0-1.38.41,11.94,11.94,0,0,0-3.84,1.9q-.83.81-.27,3.81.27,3.81-1.65,5.71a5.27,5.27,0,0,0-1.65,5.43,15.73,15.73,0,0,1,1,4.76,4.56,4.56,0,0,0,2.88,4,9.48,9.48,0,0,1,1.51,1.22l1.52,1.5h6.59v53h72.5v32.63H1351.14a23.49,23.49,0,0,0-.14-2.58,23.68,23.68,0,0,1-.14-2.59q0-15.5.14-31t.14-31c0-1.27-.05-2.45-.14-3.54s-.14-2.17-.14-3.26a3.24,3.24,0,0,1,.41-1.36,14.56,14.56,0,0,1,1-1.63c0-.18-.19-.45-.55-.82a4,4,0,0,1-.83-1.09,3.24,3.24,0,0,1-.13-1.63,8.41,8.41,0,0,0,.13-1.36V44.46Zm1.93,103.88a7.08,7.08,0,0,0,3.15.27,8.49,8.49,0,0,0,2.34-2.45,9.43,9.43,0,0,1-1.92-1.22,19.49,19.49,0,0,0-2.2-1.5c-.37,1.09-.65,2-.83,2.72S1353,147.61,1352.79,148.34Zm5.76,12a5.6,5.6,0,0,0-1.1,2.18.64.64,0,0,0,.55.68,6.09,6.09,0,0,1,1.1.4,8.89,8.89,0,0,1,.55-.95,1.66,1.66,0,0,0,.28-1C1360.11,161.48,1359.65,161,1358.55,160.3Zm.28-50.58-.55,1.09a12.17,12.17,0,0,0,1.23.54c.46.19.87.37,1.24.55l.55-.55Zm6,82.94a16.47,16.47,0,0,1-2.2-1.5,2.43,2.43,0,0,0-1.37-.68c-.37-.17-.78,0-1.24.41l-1.23,1.23q.54.54,1.23,1.35a4.12,4.12,0,0,0,1.24,1.09c.36.19.82.05,1.37-.41A17.55,17.55,0,0,1,1364.87,192.66Zm1.1-50.31c-2-.36-3.21-.4-3.57-.13a9.46,9.46,0,0,0-1.65,3.12c2,.37,3.2.41,3.57.14A9.72,9.72,0,0,0,1366,142.35Zm2.74,21.49c-.54-.37-1-.68-1.37-1a1,1,0,0,0-1.1-.13c-.18,0-.73.45-1.65,1.36l1,.95a1.32,1.32,0,0,0,1,.41,1.19,1.19,0,0,0,1-.55A5,5,0,0,1,1368.71,163.84Zm2.2-11.42c-2.38-1.64-3.75-1.36-4.12.81a.74.74,0,0,0,.28.54l.55.55a15.38,15.38,0,0,1,1.64-.95A17.44,17.44,0,0,0,1370.91,152.42Zm1.65-57.65-.82-1.63a1.7,1.7,0,0,1-.69.4c-.28.1-.41.23-.41.41-.19.18,0,.73.55,1.63a2.86,2.86,0,0,0,.68-.4A3,3,0,0,1,1372.56,94.77Zm6.59-43.24a10.34,10.34,0,0,0-1.1-1,7.29,7.29,0,0,0-1.1-.68l-.55.54a.82.82,0,0,0-.27.55c0,.18-.09.27-.28.27a1.93,1.93,0,0,0,1.65,1.63.8.8,0,0,0,.55-.27ZM1386.84,200a4.89,4.89,0,0,1-1.24-1.09,1.18,1.18,0,0,0-1-.54c-.18-.18-.46-.14-.82.14s-.55.5-.55.68c.36,1.08.73,1.72,1.1,1.9a1,1,0,0,0,1.1-.14C1385.83,200.68,1386.29,200.37,1386.84,200Zm25,6.8c-.37-2.18-1.74-3.26-4.12-3.26-2.19.36-3.11,1.54-2.74,3.53q.54,3.27,3.57,2.72Q1411.83,209.25,1411.83,206.8Z" transform="translate(-6.93 -41.47)"/></g><g class="cls-1"><path class="cls-2" d="M6.93,392.55H36.86a29.27,29.27,0,0,1,.69,4.75c.09,1.55.14,3.13.14,4.76a55,55,0,0,0,1.51,7.21c.64,2.27,1.32,4.58,2.06,6.93a47.46,47.46,0,0,0,3.29,8.7,21.81,21.81,0,0,0,10,9.25,31.84,31.84,0,0,0,13.59,3,35.25,35.25,0,0,0,13.46-2.58A18.53,18.53,0,0,0,91,426.81,34.63,34.63,0,0,0,95.36,417a17,17,0,0,0,.55-4.22,3.38,3.38,0,0,1,2.2-3.12q-1.38-1.9-2.47-3.67c-.74-1.18-1.47-2.31-2.2-3.4a17.63,17.63,0,0,0-4.67-5.31,28,28,0,0,0-6-3.39q-4.68-1.91-9.2-3.4t-9.2-3.13q-5.22-1.9-10.3-3.67t-10-3.94a52.52,52.52,0,0,1-16.47-11,50.19,50.19,0,0,1-10.16-14.41,52.32,52.32,0,0,1-4.54-16,73.68,73.68,0,0,1-.13-16.18,61.9,61.9,0,0,1,3.84-15q5.22-13.32,15-20.53t23.76-9.38a72.29,72.29,0,0,1,32.4,2.45,42.2,42.2,0,0,1,25.82,20.12A62.8,62.8,0,0,1,120.22,317a95.7,95.7,0,0,1,2.33,18.76H92.07l-.83-3.26a43.26,43.26,0,0,1-1.37-5,32.44,32.44,0,0,0-1.65-5.3q-4.11-9.8-14.83-12.24a40.28,40.28,0,0,0-10.85-.68A30.15,30.15,0,0,0,52,312.06a19,19,0,0,0-6.73,5,15.14,15.14,0,0,0-3.16,8.29q-.55,10.88,8.24,15.23,4.66,2.17,9.34,4.08T69,348.22q6.31,2.44,12.49,4.49t12.22,4.49q15.93,6.53,23.62,18.62t9.07,28.69a102.5,102.5,0,0,1-.14,15.77,54.86,54.86,0,0,1-3.71,15.5Q112.11,464.88,81.63,469A74.34,74.34,0,0,1,52,468.41q-26.1-5.16-36.53-29.91a74.45,74.45,0,0,1-4.8-15.36Q9.13,415.39,8.3,407.5a60.75,60.75,0,0,1-.68-7.2Q7.47,396.63,6.93,392.55Zm84.59,66.07A17,17,0,0,1,90,460.39c-.46.45-.69.77-.69.95a6,6,0,0,0,2.47,2.18,2.1,2.1,0,0,0,1-.55q.69-.54.42-1.08a8,8,0,0,0-.69-1.5Q92.06,459.72,91.52,458.62Zm17-139.22c-.55-.36-1-.63-1.24-.82a1.82,1.82,0,0,0-1-.27c-.19-.18-.41-.09-.69.27a1.72,1.72,0,0,0-.41.82,4.8,4.8,0,0,0,1.37,1.36C107,320.76,107.63,320.31,108.55,319.4Zm11.53,109c-.37.54-.64.95-.82,1.22a1.64,1.64,0,0,0-.28,1,2.27,2.27,0,0,0,1.37.81c.19.18.37.14.55-.14a1.33,1.33,0,0,0,.28-.67,1.72,1.72,0,0,0-.28-1Z" transform="translate(-6.93 -41.47)"/><path class="cls-2" d="M299.42,305.6c-1.84.36-2.8,1-2.89,1.9a5.47,5.47,0,0,0,.69,3,8.05,8.05,0,0,0,1.78,1.77c.64.46,1.7.41,3.16-.13q.82,3.81,1.51,7.36c.46,2.36.87,4.82,1.24,7.36q.54,7.9.41,13.76A57.65,57.65,0,0,1,303,354.39a68.05,68.05,0,0,1-6.18,15.67A43.8,43.8,0,0,1,285.69,383a31.15,31.15,0,0,1-13.6,7.08,99.16,99.16,0,0,1-15.24,2.18q-3.3,0-8.65.14t-10.44.14H223.62v74.23H193.13c-.18-.72-.32-1.36-.41-1.9a11.84,11.84,0,0,1-.14-1.91V452.1a20.73,20.73,0,0,1,.28-5.85q.54-2.85,4.94-4.76c-2.2-.54-3.84-1-4.94-1.35V359.92h19.91q7.54,0,15.52-.14t13.45-.14c2.38,0,4.71-.09,7-.27s4.62-.45,7-.81a16.85,16.85,0,0,0,13.46-8.6,18.89,18.89,0,0,1,2.33-3.33c.82-.93,2.24-1.48,4.26-1.67-1.47-1.28-2.25-1.87-2.34-1.78s-.13-.6-.13-2.06q-.29-3.57-.42-7.27a24.85,24.85,0,0,0-1.23-7q-4.4-13.17-18.4-13.71-10.44-.56-21-.55t-21-.27h-18.4V280a4.65,4.65,0,0,0,1.1-.13,4.53,4.53,0,0,1,1.09-.14q16.75.27,33.51.41t33.51.41q13.17,0,22.24,6.47T299.42,305.6ZM208.24,450.19a14.07,14.07,0,0,0,3,1.91c.55.18,1.1-.18,1.65-1.09a3.05,3.05,0,0,0,.27-1.36,1.09,1.09,0,0,0-.55-1.09C210.61,447.29,209.15,447.84,208.24,450.19Zm28-162.06c-.37.54-.69,1-1,1.36a1.75,1.75,0,0,0-.41,1.09c0,.18.22.45.68.81s.78.46,1,.27a2.65,2.65,0,0,0,1-.81,10.27,10.27,0,0,1,1-1.09,4.82,4.82,0,0,0-1.1-.82A3.93,3.93,0,0,1,236.25,288.13Zm9.61,100.34v-1.36c-.92-.18-1.74-.36-2.47-.55a5.7,5.7,0,0,0-2.47,0,2.26,2.26,0,0,0-1.79,1.23,3,3,0,0,0,.14,2.31q.82,2.17,3.3.54c.55-.36,1.1-.72,1.64-1.09Zm4.4-98.71a3.13,3.13,0,0,1-.83-.54.81.81,0,0,0-.55-.28c-.37,0-.59.1-.68.28a1.52,1.52,0,0,1-.69.54c.37.91.73,1.36,1.1,1.36a.93.93,0,0,0,.82-.41A6.78,6.78,0,0,1,250.26,289.76Zm9.33,91.46a14.38,14.38,0,0,1,1.1-2.58,8.25,8.25,0,0,0,.83-2c.18-.36,0-.73-.69-1.09a3.91,3.91,0,0,0-1.24-.55c-1.46,1.09-2.29,2-2.47,2.72a2.32,2.32,0,0,0,.69,1.36C258.26,379.59,258.86,380.31,259.59,381.22Zm4.67-14.78a10,10,0,0,1-1.23,1.5c-.46.45-.6.86-.41,1.22,0,.73.63,1.27,1.92,1.63,0,.18.23,0,.68-.41a1.84,1.84,0,0,0,.69-1.22,1.57,1.57,0,0,0-.55-1.09A6.18,6.18,0,0,1,264.26,366.44Zm9.89-56.83-1.1-1.09a6.8,6.8,0,0,0-1.65,1.09l.83.82A5,5,0,0,0,274.15,309.61Zm8.51,5.71a13.63,13.63,0,0,1,.69,3,4.68,4.68,0,0,0,.69,2.18,2,2,0,0,0,1.51.54,3.64,3.64,0,0,1,1.51.27c.18-.54.36-1.13.55-1.76s.09-1.05-.28-1.23a9.11,9.11,0,0,0-2.06-1.49Q284,316.15,282.66,315.32Zm11.54-12.15-1.92-1.36a.94.94,0,0,0-.83.41,2.08,2.08,0,0,1-.82.68,1.22,1.22,0,0,1,.68.68.65.65,0,0,0,.69.41C292.18,304.17,292.92,303.9,294.2,303.17Zm-.55,26.29c-1.65,2-2.47,3.17-2.47,3.54a2.34,2.34,0,0,0,1.92,2.44,1.66,1.66,0,0,0,2.06-.27,2.49,2.49,0,0,0,.41-2.17,2.56,2.56,0,0,0-.55-1.36C294.65,331.09,294.2,330.37,293.65,329.46Z" transform="translate(-6.93 -41.47)"/><path class="cls-2" d="M374.94,280h29.39l.27,186.81H374.94Zm6,119.65q2.75,2.17,4.95.27a1,1,0,0,0,0-1.63C384.09,396.63,382.45,397.08,381,399.62Zm15.38,58.19a28.09,28.09,0,0,1,1.1,3.53,2.27,2.27,0,0,1,1-.27q.42,0,.69-.54C399.66,458.89,398.74,458,396.36,457.81Z" transform="translate(-6.93 -41.47)"/><path class="cls-2" d="M470.51,281.6H501a15.23,15.23,0,0,1,.55,3.27V336a11.06,11.06,0,0,0,.13,1.49c.09.64,0,1-.41,1.23-2.19,1.27-3,2.44-2.47,3.53a17.8,17.8,0,0,0,2.47,3.54c.55.72.5,1.72-.13,3a7.06,7.06,0,0,1-2.89,3,2.48,2.48,0,0,1-1.37.68,5,5,0,0,0-1.38.41,11.94,11.94,0,0,0-3.84,1.9q-.82.81-.27,3.81.27,3.81-1.65,5.71a5.28,5.28,0,0,0-1.65,5.44,15.6,15.6,0,0,1,1,4.75,4.56,4.56,0,0,0,2.88,4,10,10,0,0,1,1.52,1.22l1.51,1.5h6.59v53h72.5v32.63H470.79a23.49,23.49,0,0,0-.14-2.58,23.68,23.68,0,0,1-.14-2.59q0-15.5.14-31t.14-31c0-1.27-.05-2.45-.14-3.54s-.14-2.17-.14-3.26a3.24,3.24,0,0,1,.41-1.36,14.56,14.56,0,0,1,1-1.63c0-.18-.19-.45-.55-.82a4,4,0,0,1-.83-1.09,3.24,3.24,0,0,1-.13-1.63,8.41,8.41,0,0,0,.13-1.36V281.6Zm1.93,103.88a7.08,7.08,0,0,0,3.15.27,8.49,8.49,0,0,0,2.34-2.45,9.72,9.72,0,0,1-1.92-1.22,19.49,19.49,0,0,0-2.2-1.5c-.37,1.09-.64,2-.83,2.72Zm5.76,12a5.6,5.6,0,0,0-1.1,2.18.64.64,0,0,0,.55.68,6.09,6.09,0,0,1,1.1.4,8.89,8.89,0,0,1,.55-.95,1.66,1.66,0,0,0,.28-.95C479.76,398.62,479.3,398.17,478.2,397.44Zm.28-50.58-.55,1.09c.36.18.78.37,1.23.55s.87.36,1.24.54l.55-.54Zm6,82.94a16.47,16.47,0,0,1-2.2-1.5,2.43,2.43,0,0,0-1.37-.68c-.37-.17-.78,0-1.24.41s-.87.86-1.23,1.23c.36.36.77.81,1.23,1.36A4.2,4.2,0,0,0,481,431.7c.36.18.82.05,1.37-.41A17.55,17.55,0,0,1,484.52,429.8Zm1.1-50.31c-2-.36-3.21-.4-3.57-.13a9.46,9.46,0,0,0-1.65,3.12c2,.37,3.2.41,3.57.14A9.72,9.72,0,0,0,485.62,379.49ZM488.36,401c-.54-.37-1-.68-1.37-1a1,1,0,0,0-1.1-.13c-.18,0-.73.45-1.64,1.36l1,.95a1.32,1.32,0,0,0,1,.41,1.19,1.19,0,0,0,1-.55A5,5,0,0,1,488.36,401Zm2.2-11.43c-2.38-1.63-3.75-1.35-4.12.82a.74.74,0,0,0,.28.54l.55.55a15.38,15.38,0,0,1,1.64-.95A15.62,15.62,0,0,0,490.56,389.55Zm1.65-57.64-.82-1.63a1.7,1.7,0,0,1-.69.4c-.28.1-.41.23-.41.41-.19.19,0,.73.55,1.63a3.27,3.27,0,0,0,.68-.4A3,3,0,0,1,492.21,331.91Zm6.59-43.24a10.34,10.34,0,0,0-1.1-.95,7.29,7.29,0,0,0-1.1-.68l-.55.54a.82.82,0,0,0-.27.55c0,.18-.09.27-.28.27a1.93,1.93,0,0,0,1.65,1.63.8.8,0,0,0,.55-.27Zm7.69,148.47a4.89,4.89,0,0,1-1.24-1.09,1.18,1.18,0,0,0-1-.54c-.18-.18-.46-.14-.82.14s-.55.5-.55.68c.37,1.08.73,1.72,1.1,1.9a1,1,0,0,0,1.1-.14C505.48,437.82,505.94,437.51,506.49,437.14Zm25,6.8c-.37-2.18-1.74-3.26-4.12-3.26-2.19.36-3.11,1.54-2.74,3.53.36,2.18,1.55,3.08,3.57,2.72Q531.47,446.39,531.48,443.94Z" transform="translate(-6.93 -41.47)"/><path class="cls-2" d="M629.25,281.6h30.49a15.23,15.23,0,0,1,.55,3.27V336a11.06,11.06,0,0,0,.13,1.49c.09.64,0,1-.41,1.23-2.2,1.27-3,2.44-2.47,3.53a17.8,17.8,0,0,0,2.47,3.54c.55.72.5,1.72-.14,3a7,7,0,0,1-2.88,3,2.48,2.48,0,0,1-1.37.68,5,5,0,0,0-1.38.41,11.94,11.94,0,0,0-3.84,1.9q-.82.81-.27,3.81.27,3.81-1.65,5.71a5.28,5.28,0,0,0-1.65,5.44,15.6,15.6,0,0,1,1,4.75,4.56,4.56,0,0,0,2.88,4,9.48,9.48,0,0,1,1.51,1.22l1.52,1.5h6.59v53h72.5v32.63H629.53a23.49,23.49,0,0,0-.14-2.58,21.42,21.42,0,0,1-.14-2.59q0-15.5.14-31t.14-31c0-1.27,0-2.45-.14-3.54s-.14-2.17-.14-3.26a3.24,3.24,0,0,1,.41-1.36,14.56,14.56,0,0,1,1-1.63c0-.18-.19-.45-.55-.82a4,4,0,0,1-.83-1.09,3.36,3.36,0,0,1-.14-1.63,7.53,7.53,0,0,0,.14-1.36V281.6Zm1.92,103.88a7.12,7.12,0,0,0,3.16.27,8.49,8.49,0,0,0,2.34-2.45,9.43,9.43,0,0,1-1.92-1.22,19.49,19.49,0,0,0-2.2-1.5c-.37,1.09-.65,2-.83,2.72S631.35,384.75,631.17,385.48Zm5.77,12a5.6,5.6,0,0,0-1.1,2.18.64.64,0,0,0,.55.68,6.09,6.09,0,0,1,1.1.4,8.89,8.89,0,0,1,.55-.95,1.66,1.66,0,0,0,.28-.95C638.5,398.62,638,398.17,636.94,397.44Zm.28-50.58-.55,1.09c.36.18.77.37,1.23.55s.87.36,1.24.54l.55-.54Zm6,82.94a16.47,16.47,0,0,1-2.2-1.5,2.43,2.43,0,0,0-1.37-.68c-.37-.17-.78,0-1.24.41l-1.23,1.23c.36.36.77.81,1.23,1.36a4.2,4.2,0,0,0,1.24,1.08c.36.18.82.05,1.37-.41A17.55,17.55,0,0,1,643.26,429.8Zm1.1-50.31c-2-.36-3.21-.4-3.57-.13a9.46,9.46,0,0,0-1.65,3.12c2,.37,3.2.41,3.57.14A9.72,9.72,0,0,0,644.36,379.49ZM647.1,401c-.55-.37-1-.68-1.37-1a1,1,0,0,0-1.1-.13c-.18,0-.73.45-1.65,1.36l1,.95a1.32,1.32,0,0,0,1,.41,1.19,1.19,0,0,0,1-.55A4.82,4.82,0,0,1,647.1,401Zm2.2-11.43c-2.38-1.63-3.75-1.35-4.12.82a.74.74,0,0,0,.28.54l.55.55a14.46,14.46,0,0,1,1.64-.95A15.62,15.62,0,0,0,649.3,389.55ZM651,331.91l-.82-1.63a1.7,1.7,0,0,1-.69.4c-.28.1-.41.23-.41.41-.19.19,0,.73.55,1.63a3.27,3.27,0,0,0,.68-.4A3,3,0,0,1,651,331.91Zm6.59-43.24a10.34,10.34,0,0,0-1.1-.95,7.29,7.29,0,0,0-1.1-.68l-.55.54a.82.82,0,0,0-.27.55.25.25,0,0,1-.28.27,1.92,1.92,0,0,0,1.65,1.63.8.8,0,0,0,.55-.27Zm7.69,148.47a4.89,4.89,0,0,1-1.24-1.09,1.18,1.18,0,0,0-1-.54c-.18-.18-.46-.14-.82.14s-.55.5-.55.68c.36,1.08.73,1.72,1.1,1.9a1,1,0,0,0,1.1-.14C664.22,437.82,664.68,437.51,665.23,437.14Zm25,6.8c-.37-2.18-1.74-3.26-4.12-3.26-2.19.36-3.11,1.54-2.74,3.53.36,2.18,1.55,3.08,3.57,2.72Q690.22,446.39,690.22,443.94Z" transform="translate(-6.93 -41.47)"/><path class="cls-2" d="M795.41,292.48l1.09-.54c2.57,0,4.12-.32,4.67-1s.55-2.12,0-4.48a12.7,12.7,0,0,1-.27-2.45,2.92,2.92,0,0,1,1.37-2.17,26.74,26.74,0,0,0,2.89,6.38,10.38,10.38,0,0,0,5.63,4.22c.73-1.45,1.41-3,2.06-4.62a27.49,27.49,0,0,1,2.33-4.63,13.72,13.72,0,0,1,1.24-1.08c.45-.36.86-.73,1.23-1.09l1.1,1.63a6.56,6.56,0,0,1,.82,1.63,1.8,1.8,0,0,1-.27,1.63,2.9,2.9,0,0,0-.55,1.63,5.66,5.66,0,0,0-.27,1.77,2,2,0,0,0,.55,1.5,2,2,0,0,0,1.51.54,5.68,5.68,0,0,0,1.78-.27c.37-.18.78-.36,1.24-.54a8.23,8.23,0,0,0,1.51-.82,16.36,16.36,0,0,1,.82,2.86c0,.27-.46.5-1.37.67a6.84,6.84,0,0,1-1,.41,8.58,8.58,0,0,0-1,.41,12.64,12.64,0,0,0,1.92,1.63l1.65.55c0,1.81,0,3.53-.14,5.16a31.31,31.31,0,0,0,.14,5.17,11.62,11.62,0,0,1-.83,6.53,10.77,10.77,0,0,0-.82,6.25q.54,3,1.1,6.25a38.53,38.53,0,0,1,.55,6.26v26.65a.58.58,0,0,1,.41.13c.09.1.32.14.68.14q4.13-4.9,8-10.06t8-10.34c2.57-3.26,5.17-6.61,7.83-10.06s5.26-6.88,7.83-10.33,5.22-6.89,8-10.33,5.49-7,8.24-10.61q6.32,7.08,13.73,1.09a31.63,31.63,0,0,1,.28,3.81,15.58,15.58,0,0,0,.55,3.8c2.37-1.44,4.62-2.76,6.73-3.94s4.25-2.4,6.45-3.67q-3-5.16.55-10.33c1.65-2.72.82-4.17-2.47-4.35h-4.12q.27-3.81,4.67-3.81h22.52l.55.54v.55a.79.79,0,0,1-.28.54,6.18,6.18,0,0,1-1.1,1.63q-13.17,17.42-26.23,34.67t-26.22,34.94v.28c0,.18,0,.27-.14.27s-.14.09-.14.27q8.25,17.4,16.48,34.81t16.48,35.07q-2.75,3-5.22,5.58c-1.65,1.72-3.29,3.49-4.94,5.3a2.34,2.34,0,0,1,.41.54,2,2,0,0,0,.41.55,9.3,9.3,0,0,0,2.75-2c.73-.82,1.51-1.68,2.33-2.58a15.58,15.58,0,0,1,2.61-2.32,6.17,6.17,0,0,1,3.57-.95q1.65,3.81,4.4,9.52,2.19,4.89,5.63,12.24t8.1,16.85l-35.16.55q-9.88-21.21-17.16-37.12t-12.22-26.78q-5.77-12.51-9.89-21.48a33.71,33.71,0,0,0-3.29,3.8q-4.12,5.44-8.11,10.61t-8.37,10.6a15.1,15.1,0,0,0-3,9.79v50.85q-8,0-15.38.14t-15.11-.14V327a26.09,26.09,0,0,0,3-.81,2.51,2.51,0,0,0,1.65-2.72c0-1.45-.51-2.31-1.51-2.59a8.6,8.6,0,0,0-3.43-.13v-13.6a26.09,26.09,0,0,0,3-.81q3.84,5.7,6.31,3.8a4.39,4.39,0,0,0,1.93-3.8q-.28-3.54-6.59-3.81a38.82,38.82,0,0,1-2.34-4.89Q796.78,295.19,795.41,292.48ZM802,318.86a22.71,22.71,0,0,1,2.47-2.18,5.48,5.48,0,0,0,1.65-1.9,2.05,2.05,0,0,0,.55-2.72,2.51,2.51,0,0,0-1.38-.68,1.47,1.47,0,0,0-1.37.41,12.57,12.57,0,0,0-2.47,1.9L799,316.14a17.12,17.12,0,0,1,1.78,1.49Zm3.29-17.14a4.69,4.69,0,0,1,.55-1.35,4.07,4.07,0,0,0-1.78-1.09,5.82,5.82,0,0,0-3.16.54l2.33.95C803.87,301,804.56,301.36,805.29,301.72ZM802,359.1a4.7,4.7,0,0,0-.55,1.36c0,.73.27,1.09.82,1.09a.73.73,0,0,0,.83-.82A5.62,5.62,0,0,0,802,359.1Zm19.5,102.51a14.68,14.68,0,0,1-1.51-.81,1.74,1.74,0,0,0-1-.27,1.92,1.92,0,0,0-1.1,1.9c-.19,0-.1.14.27.41a1.86,1.86,0,0,0,1.1.41,3.7,3.7,0,0,0,1-.68A8.58,8.58,0,0,1,821.5,461.61ZM859.4,326.2c-.37.54-.69,1-1,1.36a1.76,1.76,0,0,0-.42,1.08c-.18.19,0,.46.42.82a1.09,1.09,0,0,0,1.23.27,2.12,2.12,0,0,0,.83-.68,6.61,6.61,0,0,1,.82-.95Zm20.87,117.74a9,9,0,0,0,3.16-.95,5.75,5.75,0,0,0,.69-2.59,26.27,26.27,0,0,0-2.2,1.91ZM891.8,299.28a40,40,0,0,1-3.7-3c-1.2-1.09-2.52-2.18-4-3.27l1.09-.54a3.13,3.13,0,0,1,.83-.54,7.24,7.24,0,0,0,3.84,2c1.47.28,3,.6,4.67,1a22.34,22.34,0,0,0,1-3c.28-1.09.59-2.27,1-3.54-1.46-.36-2.74-.63-3.84-.82a30.68,30.68,0,0,1-3.57-.81,16.23,16.23,0,0,1,1.1-1.9,1.83,1.83,0,0,0,.27-1.64c0-.36-.27-.77-.82-1.22a24.89,24.89,0,0,1-1.92-1.77h6q-.56,6.27,4.94,7.07a35.42,35.42,0,0,1,.28,4.35,35,35,0,0,0,.27,4.35Z" transform="translate(-6.93 -41.47)"/><path class="cls-2" d="M987.38,281.6h30.48a15.23,15.23,0,0,1,.55,3.27V336a9.87,9.87,0,0,0,.14,1.49q.13,1-.42,1.23c-2.19,1.27-3,2.44-2.47,3.53a18.22,18.22,0,0,0,2.47,3.54c.55.72.51,1.72-.13,3a7.06,7.06,0,0,1-2.89,3,2.45,2.45,0,0,1-1.37.68,4.84,4.84,0,0,0-1.37.41,11.92,11.92,0,0,0-3.85,1.9q-.82.81-.27,3.81.27,3.81-1.65,5.71a5.28,5.28,0,0,0-1.65,5.44,15.6,15.6,0,0,1,1,4.75,4.55,4.55,0,0,0,2.89,4,10,10,0,0,1,1.51,1.22l1.51,1.5h6.59v53h72.5v32.63H987.65a23.49,23.49,0,0,0-.14-2.58,23.75,23.75,0,0,1-.13-2.59q0-15.5.13-31t.14-31c0-1.27,0-2.45-.14-3.54s-.13-2.17-.13-3.26a3.1,3.1,0,0,1,.41-1.36,13.09,13.09,0,0,1,1-1.63c0-.18-.19-.45-.55-.82a4,4,0,0,1-.82-1.09,3.13,3.13,0,0,1-.14-1.63,8.57,8.57,0,0,0,.14-1.36V281.6Zm1.92,103.88a7.12,7.12,0,0,0,3.16.27,8.65,8.65,0,0,0,2.33-2.45,10,10,0,0,1-1.92-1.22,19.49,19.49,0,0,0-2.2-1.5c-.37,1.09-.64,2-.82,2.72S989.48,384.75,989.3,385.48Zm5.77,12a5.45,5.45,0,0,0-1.1,2.18.64.64,0,0,0,.55.68,6,6,0,0,1,1.09.4,8.89,8.89,0,0,1,.55-.95,1.66,1.66,0,0,0,.28-.95C996.62,398.62,996.16,398.17,995.07,397.44Zm.27-50.58-.55,1.09c.37.18.78.37,1.24.55s.86.36,1.23.54l.55-.54Zm6,82.94a16.47,16.47,0,0,1-2.2-1.5,2.37,2.37,0,0,0-1.37-.68c-.37-.17-.78,0-1.23.41s-.88.86-1.24,1.23c.36.36.78.81,1.24,1.36a4.07,4.07,0,0,0,1.23,1.08c.37.18.83.05,1.37-.41A17.55,17.55,0,0,1,1001.38,429.8Zm1.1-50.31c-2-.36-3.21-.4-3.57-.13a9.46,9.46,0,0,0-1.65,3.12c2,.37,3.2.41,3.57.14A9.32,9.32,0,0,0,1002.48,379.49Zm2.75,21.49c-.55-.37-1-.68-1.38-1a1,1,0,0,0-1.1-.13c-.18,0-.73.45-1.64,1.36l1,.95a1.32,1.32,0,0,0,1,.41,1.18,1.18,0,0,0,1-.55A5.07,5.07,0,0,1,1005.23,401Zm2.19-11.43c-2.38-1.63-3.75-1.35-4.12.82a.74.74,0,0,0,.28.54l.55.55a15.5,15.5,0,0,1,1.65-.95A14.56,14.56,0,0,0,1007.42,389.55Zm1.65-57.64-.82-1.63a1.63,1.63,0,0,1-.69.4c-.27.1-.41.23-.41.41-.19.19,0,.73.55,1.63a3.27,3.27,0,0,0,.68-.4A3.32,3.32,0,0,1,1009.07,331.91Zm6.59-43.24a10.34,10.34,0,0,0-1.1-.95,7.21,7.21,0,0,0-1.09-.68l-.55.54a.79.79,0,0,0-.28.55.24.24,0,0,1-.27.27A1.92,1.92,0,0,0,1014,290a.78.78,0,0,0,.54-.27Zm7.69,148.47a4.66,4.66,0,0,1-1.23-1.09,1.21,1.21,0,0,0-1-.54c-.19-.18-.46-.14-.83.14s-.55.5-.55.68c.37,1.08.73,1.72,1.1,1.9a1,1,0,0,0,1.1-.14C1022.34,437.82,1022.8,437.51,1023.35,437.14Zm25,6.8c-.36-2.18-1.74-3.26-4.11-3.26q-3.3.54-2.75,3.53c.36,2.18,1.55,3.08,3.57,2.72C1047.25,446.57,1048.34,445.57,1048.34,443.94Z" transform="translate(-6.93 -41.47)"/><path class="cls-2" d="M1155.73,280h30.21c0,.37,0,2.49.13,6.39s.14,9,.14,15.23,0,13.28.14,21.07.14,15.73.14,23.8v43.37q0,6.26.27,12.23a96.11,96.11,0,0,0,1.37,12.24,25.58,25.58,0,0,0,5.22,12.24,28,28,0,0,0,9.75,7.88,26.54,26.54,0,0,0,12.36,2.58,29.37,29.37,0,0,0,13-3.39,20,20,0,0,0,11.26-15.5,90.9,90.9,0,0,0,1.51-10.74q.4-5.31.41-10.74.27-10.06.27-20V280.52l30.49-.55v96q0,18.77-.28,31.27a79.67,79.67,0,0,1-1,12.37q-1,6.12-2.33,12.37-4.12,17.13-15.79,26.65t-29.25,10.88a105.69,105.69,0,0,1-13,.27,100.7,100.7,0,0,1-12.77-1.36,43.18,43.18,0,0,1-18.26-7.07,48.17,48.17,0,0,1-13.32-14.14,50.13,50.13,0,0,1-6.73-14.68,80.78,80.78,0,0,1-2.61-15.77q-.55-8.7-1-17.41c-.28-5.8-.41-11.59-.41-17.4V280Zm23.07,170.22a10.12,10.12,0,0,1,.82-2.17c0-.55-.37-.82-1.1-.82a4.16,4.16,0,0,1-.69.55c-.27.18-.41.36-.41.54C1177.42,448.66,1177.88,449.29,1178.8,450.19Zm.82-103.87a14.51,14.51,0,0,0,.82,3.53c.92,0,1.47-.08,1.65-.27C1182.82,348.13,1182,347.05,1179.62,346.32Zm23.62,105.78c2.2,1.27,3.93,1.36,5.22.27a1.33,1.33,0,0,0,.27-.95,1,1,0,0,0-.55-1C1206.35,449.2,1204.7,449.74,1203.24,452.1Z" transform="translate(-6.93 -41.47)"/><path class="cls-2" d="M1358.68,467.05q-1.1-4.89-5.76-4.08a3,3,0,0,1-2.2-.27l-2.2-1.09c-1.47.91-1.88,1.77-1.23,2.59a6.08,6.08,0,0,1,1.23,2.58H1345V434.42a21.9,21.9,0,0,1,4.67-.54,6.33,6.33,0,0,1,4.39,2.19,14.89,14.89,0,0,1,9.48-2.6q4.8.4,9.47.95a6.56,6.56,0,0,1,1.93.27,3.21,3.21,0,0,0,2.19-.27,7.17,7.17,0,0,1,2.61-.54h2.61q7.14-.27,14.42-.14t14.69-.41q16.21-.52,19.23-16.49a48.87,48.87,0,0,0,.41-8.1,25.6,25.6,0,0,0-1.51-7.85q-3.86-12.42-15.93-13.51-4.11-.54-8.24-.82t-8.24-.27q-11.54-.27-23.07-.13t-23.07.13h-6V354.2a23.18,23.18,0,0,1,4.12-.27q8.79,0,17.17-.13t17.16.13a85.21,85.21,0,0,0,10.85-.13,87.06,87.06,0,0,1,10.85-.14,19.34,19.34,0,0,0,7.28-.82,46.68,46.68,0,0,0,6.72-2.74,3.59,3.59,0,0,0,1.65-1.64,14.68,14.68,0,0,1,1.38-2.19A20.94,20.94,0,0,0,1426,334.5a37.17,37.17,0,0,0-2.2-12.32,13.63,13.63,0,0,0-11-9,71.8,71.8,0,0,0-10.44-.82H1345a136.65,136.65,0,0,1-.14-16.18q.42-8,.14-16.45c1.47,0,2.84,0,4.12-.14a21.53,21.53,0,0,1,4.12.14,4.59,4.59,0,0,1,3,1.63q3.3,2.71,5.77,0a3.6,3.6,0,0,1,2.06-1.49,17,17,0,0,1,2.33-.14q12.09.27,23.9.27t23.89.55q32.13,1.64,40.1,33a64.35,64.35,0,0,1,1.51,19.06,50.27,50.27,0,0,1-5.08,18.53,41.57,41.57,0,0,1-14,16.34q18.13,8.4,23.62,27.36a45.07,45.07,0,0,1-5.9,5.83,14.2,14.2,0,0,0-4.54,6.63,19.88,19.88,0,0,0,5.22-4.76,9.12,9.12,0,0,1,6.32-3.4,41.36,41.36,0,0,1,1.65,9,49.51,49.51,0,0,1-.28,9,65.39,65.39,0,0,1-6.86,25.83,44.57,44.57,0,0,1-13.6,16.72q-8.38,6.12-20.73,6.67-15.66.54-31.18.54T1358.68,467.05Zm-1.1-165c-.36-1.45-.64-2.77-.82-3.95a14.46,14.46,0,0,0-.82-3.12,2.51,2.51,0,0,0-1.38-1.36,2.59,2.59,0,0,0-1.92-.28,9,9,0,0,0-1.51,1.09c-.64.55-1,1-1,1.36.36,1.09.73,2.14,1.1,3.13a6.73,6.73,0,0,0,1.65,2.58,2.31,2.31,0,0,0,1.92.41A9.36,9.36,0,0,1,1357.58,302Zm.28-15.77a4,4,0,0,1-1.24,1.22,1.15,1.15,0,0,0-.68.95,1.53,1.53,0,0,0,.55,1.09c.36.36.73.72,1.09,1.09a4.68,4.68,0,0,0,1.93-1.91A11.92,11.92,0,0,0,1357.86,286.23Zm0,154.17a10.27,10.27,0,0,0-1,1.09,1.63,1.63,0,0,0-.41.82,2.63,2.63,0,0,0,1,.68,2.81,2.81,0,0,1,1,.68,3,3,0,0,1,.55-.82,1.1,1.1,0,0,0,.27-.81,1.08,1.08,0,0,0-.41-.68C1358.55,441.08,1358.22,440.77,1357.86,440.4Zm1.1,21.76c1.83-.72,2.1-1.91.82-3.54a1.84,1.84,0,0,0-1.92,0C1356.76,460.25,1357.13,461.44,1359,462.16ZM1385.6,286a5.58,5.58,0,0,0-3.85,1.5,4.49,4.49,0,0,0-1.64,3.4,7.1,7.1,0,0,0,2.06,4.76,5.78,5.78,0,0,0,4.25,2.31,5.91,5.91,0,0,0,3.57-1.63,4.44,4.44,0,0,0,1.38-3.27,7.43,7.43,0,0,0-1.93-4.76C1388.16,286.73,1386.88,286,1385.6,286Zm29.66,16.86a8.89,8.89,0,0,1,1.1-1.36,4.29,4.29,0,0,0,.82-1.08c.18,0,.09-.23-.27-.68a1.49,1.49,0,0,0-1.1-.68,6.56,6.56,0,0,0-1.1.68,10.34,10.34,0,0,0-1.1.95A8.67,8.67,0,0,1,1415.26,302.81Zm10.44,53.25c-.37.54-.69,1-1,1.36a9.32,9.32,0,0,1-1,1.08l1,1a1.36,1.36,0,0,0,1,.41c1.09-.37,1.64-.91,1.64-1.64.18-.36.05-.68-.41-1A3.86,3.86,0,0,1,1425.7,356.06Zm10.43,60.14a7,7,0,0,0,2.75-.68,6.84,6.84,0,0,0,1.37-2.58Zm4.4-120.46a4.48,4.48,0,0,0-1.1-.81,4,4,0,0,1-1.1-.82l-.83,1.36c0,.54.37,1,1.1,1.36A7.61,7.61,0,0,0,1440.53,295.74Zm15.65,98.44q-3.3-1.9-4.39,1.09a1.37,1.37,0,0,0,0,1.22,1.7,1.7,0,0,0,.82.95c1.65.54,2.93-.27,3.85-2.45v-.27A.76.76,0,0,1,1456.18,394.18Z" transform="translate(-6.93 -41.47)"/><path class="cls-2" d="M1546.81,467.05q-1.11-4.89-5.77-4.08a3,3,0,0,1-2.2-.27l-2.2-1.09c-1.46.91-1.87,1.77-1.23,2.59a6.08,6.08,0,0,1,1.23,2.58h-3.57V434.42a22,22,0,0,1,4.67-.54,6.35,6.35,0,0,1,4.4,2.19,14.86,14.86,0,0,1,9.47-2.6q4.8.4,9.48.95a6.49,6.49,0,0,1,1.92.27,3.24,3.24,0,0,0,2.2-.27,7.09,7.09,0,0,1,2.61-.54h2.61q7.13-.27,14.41-.14t14.7-.41q16.2-.52,19.22-16.49a47.81,47.81,0,0,0,.41-8.1,25.3,25.3,0,0,0-1.51-7.85q-3.84-12.42-15.93-13.51c-2.74-.36-5.49-.63-8.23-.82s-5.5-.27-8.24-.27q-11.54-.27-23.07-.13t-23.07.13h-6V354.2a23.18,23.18,0,0,1,4.12-.27q8.79,0,17.17-.13t17.16.13a85.21,85.21,0,0,0,10.85-.13,87.08,87.08,0,0,1,10.85-.14,19.31,19.31,0,0,0,7.28-.82,46.8,46.8,0,0,0,6.73-2.74,3.59,3.59,0,0,0,1.65-1.64,13.83,13.83,0,0,1,1.37-2.19,20.94,20.94,0,0,0,3.84-11.77,37.41,37.41,0,0,0-2.19-12.32,13.66,13.66,0,0,0-11-9,71.69,71.69,0,0,0-10.44-.82h-57.4a136.63,136.63,0,0,1-.13-16.18q.4-8,.13-16.45c1.47,0,2.84,0,4.12-.14a21.5,21.5,0,0,1,4.12.14,4.55,4.55,0,0,1,3,1.63q3.3,2.71,5.77,0a3.6,3.6,0,0,1,2.06-1.49,17.08,17.08,0,0,1,2.34-.14q12.07.27,23.89.27t23.89.55q32.15,1.64,40.1,33a64,64,0,0,1,1.51,19.06,50.08,50.08,0,0,1-5.08,18.53,41.41,41.41,0,0,1-14,16.34q18.14,8.4,23.62,27.36a45.07,45.07,0,0,1-5.9,5.83,14.11,14.11,0,0,0-4.53,6.63,20,20,0,0,0,5.22-4.76,9.12,9.12,0,0,1,6.31-3.4,40.19,40.19,0,0,1,1.65,9,49.51,49.51,0,0,1-.28,9,65.22,65.22,0,0,1-6.86,25.83,44.48,44.48,0,0,1-13.6,16.72q-8.37,6.12-20.73,6.67-15.66.54-31.17.54T1546.81,467.05Zm-1.1-165c-.37-1.45-.65-2.77-.83-3.95a14.46,14.46,0,0,0-.82-3.12,2.45,2.45,0,0,0-1.37-1.36,2.62,2.62,0,0,0-1.93-.28,9.37,9.37,0,0,0-1.51,1.09c-.64.55-1,1-1,1.36.37,1.09.73,2.14,1.1,3.13a7,7,0,0,0,1.65,2.58,2.31,2.31,0,0,0,1.92.41A9.42,9.42,0,0,1,1545.71,302Zm.27-15.77a4.07,4.07,0,0,1-1.23,1.22,1.15,1.15,0,0,0-.69.95,1.53,1.53,0,0,0,.55,1.09l1.1,1.09a4.58,4.58,0,0,0,1.92-1.91A11.92,11.92,0,0,0,1546,286.23Zm0,154.17a11.54,11.54,0,0,0-1,1.09,1.72,1.72,0,0,0-.41.82,2.72,2.72,0,0,0,1,.68,2.72,2.72,0,0,1,1,.68,3.22,3.22,0,0,1,.55-.82,1,1,0,0,0-.14-1.49C1546.67,441.08,1546.35,440.77,1546,440.4Zm1.1,21.76c1.83-.72,2.1-1.91.83-3.54a1.39,1.39,0,0,0-1-.27,1.34,1.34,0,0,0-1,.27C1544.88,460.25,1545.25,461.44,1547.08,462.16ZM1573.72,286a5.54,5.54,0,0,0-3.84,1.5,4.5,4.5,0,0,0-1.65,3.4,7.15,7.15,0,0,0,2.06,4.76,5.8,5.8,0,0,0,4.25,2.31,5.94,5.94,0,0,0,3.58-1.63,4.47,4.47,0,0,0,1.37-3.27,7.47,7.47,0,0,0-1.92-4.76C1576.28,286.73,1575,286,1573.72,286Zm29.66,16.86a9.53,9.53,0,0,1,1.1-1.36,4.06,4.06,0,0,0,.82-1.08c.19,0,.09-.23-.27-.68a1.47,1.47,0,0,0-1.1-.68,6.56,6.56,0,0,0-1.1.68,10.34,10.34,0,0,0-1.1.95A8.67,8.67,0,0,1,1603.38,302.81Zm10.44,53.25c-.37.54-.69,1-1,1.36a11.64,11.64,0,0,1-1,1.08q.54.56,1,1a1.32,1.32,0,0,0,1,.41c1.1-.37,1.65-.91,1.65-1.64.18-.36,0-.68-.42-1A4,4,0,0,1,1613.82,356.06Zm10.43,60.14a6.92,6.92,0,0,0,2.75-.68,6.56,6.56,0,0,0,1.37-2.58Zm4.4-120.46a4.3,4.3,0,0,0-1.1-.81,4.13,4.13,0,0,1-1.1-.82l-.82,1.36c0,.54.36,1,1.1,1.36A7.64,7.64,0,0,0,1628.65,295.74Zm15.65,98.44c-2.19-1.27-3.66-.91-4.39,1.09a1.37,1.37,0,0,0,0,1.22,1.7,1.7,0,0,0,.82.95c1.65.54,2.93-.27,3.85-2.45v-.27A.76.76,0,0,1,1644.3,394.18Z" transform="translate(-6.93 -41.47)"/></g></g></svg>