<?xml version="1.0" encoding="utf-8"?>
<!-- Generator: Adobe Illustrator 22.1.0, SVG Export Plug-In . SVG Version: 6.00 Build 0)  -->
<svg version="1.1" id="Layer_1" xmlns="http://www.w3.org/2000/svg" xmlns:xlink="http://www.w3.org/1999/xlink" x="0px" y="0px"
	 viewBox="0 0 1644.3 428.7" style="enable-background:new 0 0 1644.3 428.7;" xml:space="preserve">
<style type="text/css">
	.st0{fill:#A80109;stroke:#FFFFFF;stroke-miterlimit:10;}
</style>
<title>VSPbanner</title>
<g>
	<g>
		<path class="st0" d="M295.4,163.7c-0.4-0.7-0.9-1.4-1.4-2c-0.4-0.5-0.8-1-1.1-1.5c-0.4-0.4-0.6-0.8-0.7-1.4
			c-0.1-0.5-0.3-1-0.7-1.4c-0.5-0.9-1.5-1.5-2.5-1.5c-0.9-0.2-1.8,0.1-2.5,0.7c-1.5,1.5-1.2,3.1,0.8,4.9c0.3,0.3,0.7,0.6,1.1,0.7
			c0.4,0.1,0.8,0.4,1.1,0.7l1,1c0.5,0.4,1,0.7,1.5,0.9c-2.8,1.1-5.4,2.1-8,3.1s-5.1,2-7.7,2.9c0.2,0.3,0.5,0.5,0.8,0.7
			c0.2,0.1,0.4,0.2,0.5,0.4c1.1,0.4,2.2,0.8,3.3,1.1c1.3,0.4,1.7,1.3,1.4,2.7c-0.2,1.1-0.6,2.2-1.2,3.1c-0.7,1-1.5,2-2.3,2.9
			c-1.3,1.3-1.9,2.3-1.8,3s1,1.8,2.9,3.3c-4,0.4-8,0.5-12,0.4c-3.7-0.1-7.7-0.1-11.9-0.1c-0.9-3.4-1.9-6.8-2.9-10.2
			c-1-3.4-2-6.8-2.9-10.5c-0.9-3.4-1.9-6.8-2.9-10.2c-1-3.5-1.8-7-2.4-10.6c-0.5-3.5-1.5-7-2.8-10.3c-1.4-3.3-2.5-6.6-3.4-10.1
			c-1.1-3.6-2.1-7.1-3-10.5c-0.9-3.4-1.8-6.8-2.7-10.5c-0.9-3.4-1.9-6.9-2.9-10.3c-1-3.4-2-6.9-2.9-10.3c-0.9-3.6-1.9-7.1-3-10.5
			c-1.1-3.4-2.1-6.8-3-10.2c-0.9-3.6-1.9-7.2-2.9-10.7c-1-3.5-2-7.1-2.9-10.7l-5.8-20.4c-0.9-3.4-1.9-6.9-2.9-10.3s-2-7-2.9-10.6
			h33.2c6,22.3,12,44.5,18,66.5s11.9,44.3,17.7,66.7h0.8c0.5-2,1.1-3.9,1.6-5.6c0.6-1.7,1-3.5,1.4-5.3c0.9-3.1,1.7-6,2.3-8.8
			s1.3-5.7,2.1-8.6c0.3-1.7,0.8-3.4,1.5-5c0.7-1.6,1.1-3.3,1.2-5c0.2-1.8,0.6-3.6,1.2-5.3c0.7-1.8,1.2-3.7,1.5-5.6
			c0.6-1.6,1-3.3,1.4-5c0.4-1.7,0.8-3.5,1.4-5.3l2.5-10.6c0.4-1.6,0.8-3.3,1.4-5c0.6-1.7,1-3.5,1.4-5.3c0.5-1.8,1.1-3.6,1.5-5.4
			c0.5-1.8,0.9-3.6,1.2-5.4c0.5-1.9,0.9-3.7,1.4-5.4c0.5-1.7,0.9-3.5,1.2-5.3c1.3-4.5,2.5-9.1,3.6-13.6c1.1-4.5,2.3-9.1,3.6-13.6
			c0.3-1.4,0.8-2.8,1.4-4.1h25.8c0.2,0.4,0.4,0.7,0.5,1.1s0.4,0.7,0.5,1.1c0.8-0.4,1.5-0.8,2.2-1.4c0.7-0.5,1.7-1.3,3-2.2
			c-0.2,1-0.3,2-0.3,3c0,0.8-0.2,1.5-0.5,2.2c-4.7,17.6-9.6,35-14.5,52.4s-9.9,34.8-14.8,52.4c-1.7,5.8-3.2,11.6-4.7,17.4
			s-3.1,11.6-5,17.4c-0.9,3.1-1.7,6.2-2.5,9.3C297.6,157.2,296.6,160.5,295.4,163.7z M220.4,24.2c-0.2-0.1-0.3-0.3-0.3-0.5
			c0-0.2-0.1-0.4-0.3-0.6c-0.3,0-0.6-0.1-0.8-0.3c-0.2-0.2-0.5-0.3-0.8-0.3c-0.2,0.2-0.3,0.3-0.4,0.5c-0.1,0.2-0.3,0.4-0.4,0.6
			c0.3,0.1,0.6,0.3,0.8,0.5c0.2,0.2,0.5,0.3,0.8,0.3c0.2,0,0.4,0,0.6-0.1C219.8,24.2,220.1,24.2,220.4,24.2L220.4,24.2z M232.7,16.3
			c1.1-0.9,2.1-1.9,2.9-3c0.3-1.2,0.4-2.5,0.2-3.8c-1.1,0.6-2.1,1.4-2.9,2.5C232.6,12.5,232.6,14,232.7,16.3L232.7,16.3z
			 M245.6,71.2c0-0.2,0-0.4,0.1-0.5c0.1-0.2,0.1-0.4,0.1-0.5c-0.6,0.2-1.3,0-1.8-0.4l-1.2-1.2c-0.4-0.4-0.9-0.7-1.4-0.8
			c-0.7-0.1-1.4,0.1-1.9,0.5c-2.2,1.8-2.6,3.9-1.1,6.3c1.3-0.6,2.5-1.1,3.7-1.6S244.6,71.8,245.6,71.2L245.6,71.2z M272.3,177
			c-0.7,1.1-1,1.7-0.8,1.9c0,0.5,0.5,0.8,1.4,0.8c0.7,0,1.1-0.4,1.1-1.4c-0.2-0.2-0.4-0.4-0.7-0.5
			C272.9,177.6,272.6,177.3,272.3,177L272.3,177z M274.5,137.3c0.2,2.5,0.5,4.1,0.8,4.6s1.6,1,3.6,1.4
			C279.1,140.4,277.6,138.4,274.5,137.3L274.5,137.3z M279.2,152.3c0.1-0.2,0.2-0.5,0.4-0.7c0.2-0.2,0.3-0.4,0.4-0.7
			c-0.4-0.2-0.7-0.3-1.1-0.4s-0.7-0.2-1.1-0.4l-0.5,0.6c0.3,0.3,0.6,0.6,1,0.8C278.6,151.7,278.9,152,279.2,152.3L279.2,152.3z
			 M283.8,145.2c-2.6-1.5-4.4-1-5.5,1.4c-0.2,0.4-0.1,0.9,0.1,1.2c0.3,0.4,0.5,0.7,0.7,0.7C281.7,149,283.3,147.9,283.8,145.2
			L283.8,145.2z M283.5,164.2c1.8-1.1,2-2.4,0.5-3.8c-0.5-0.8-1.1-1.5-1.9-2c-0.7-0.4-1.6-0.3-2.8,0.4
			C279.8,161.7,281.2,163.5,283.5,164.2L283.5,164.2z M286.5,187.9c-0.7,0.2-1.4,0.3-2.1,0.3h-1.8v-0.8c0.6-0.4,1.2-0.7,1.8-0.9
			C285.2,186.1,285.9,186.6,286.5,187.9L286.5,187.9z M295.3,85.1c-1.5,0.4-2.8,0.7-3.8,1.1s-1.6,1.5-1.6,3.3c2.4,0.4,3.8,0.4,4.4,0
			S295.2,87.6,295.3,85.1L295.3,85.1z M290.9,122.9h1.4v-2.4c0-0.2-0.5-0.3-1.4-0.3V122.9z M294.5,116.9c-0.3-0.1-0.5-0.3-0.7-0.6
			c-0.1-0.2-0.3-0.3-0.7-0.3c-0.2,0-0.3,0.1-0.4,0.3c-0.1,0.2-0.3,0.3-0.7,0.3c0.3,0.5,0.7,1,1.1,1.4
			C293.3,118,293.8,117.6,294.5,116.9L294.5,116.9z M331.6,23.6c0.2-0.4,0.5-0.8,0.8-1.1c0.2-0.2,0.4-0.5,0.5-0.8
			c-0.2-0.4-0.4-0.7-0.5-1.1c-0.3,0.2-0.7,0.3-1,0.3c-0.3,0-0.5,0.2-0.7,0.5C330.9,22.2,331.2,23,331.6,23.6L331.6,23.6z"/>
		<path class="st0" d="M450.5,110.9l0.5,1.1c0.2,0.4,0.4,0.7,0.5,1.1c0.4,2.5,0.9,4.1,1.5,4.6s2.2,0.6,4.8,0.3
			c0.7-0.1,1.3-0.3,1.9-0.5v2c0,0.8,0.1,1.6,0.3,2.3c-1.5-0.7-2.8-1.4-4-1.9c-1.3-0.5-2.9-0.3-4,0.5c-1,0.7-1.6,1.8-1.6,3
			c0,1.1,0.2,2.2,0.5,3.3c-1.2,1-3,1.3-4.4,0.5c-1.6-0.7-3.4-0.6-5,0.3c1.8,2.5,3.8,3.7,5.9,3.4c2.2-0.3,4.5-0.2,6.7,0.1
			c-0.3-0.5-0.5-1-0.8-1.5c-0.2-0.3-0.4-0.6-0.5-0.9c0.8,0.3,1.6,0.6,2.5,0.8c0.8,0.2,1.7,0.5,2.5,0.8c-5.5,19.6-11,38.9-16.5,57.9
			h-33c9.7-31.3,19.3-62.5,28.7-93.4c9.4-30.9,18.9-62.1,28.4-93.4h32.1c9.9,31.4,19.7,62.5,29.4,93.3s19.4,62,29.3,93.5
			c-5.9,0.4-11.6,0.4-17.2,0.3s-11.2-0.2-16.9,0h-69c1.3-5.2,2.6-10.4,4-15.4s2.7-10,4-15.1h52.5c-5.3-18.1-10.6-36.1-15.9-53.8
			s-10.6-35.7-16-53.8h-0.8c-3.1,10.5-6.1,20.9-9.1,31.3c-2.9,10.3-5.9,20.8-9.1,31.3c-1.3,0.4-2.5,0.7-3.6,1.1s-2.3,0.7-3.6,1.1
			l-2.6-2.6c-0.8-0.8-0.5-2.3,1-4.5c-0.2,0.2-0.5,0.2-0.8,0.3c-0.3,0-0.6,0.1-0.8,0.3c-0.4,0.4-0.7,0.8-1,1.2
			c-0.3,0.5-0.6,0.9-1,1.5c-0.3,0-0.7,0-1-0.1c-0.3-0.1-0.7,0-1,0.1c-1.3,0.4-2.6,1.1-3.6,2c-1.1,1-2.7,1.4-4.1,1
			c-0.9-0.2-1.5,0.3-1.6,1.5c-0.3,0.9,0.2,2,1.1,2.3c1.3,0.3,2.2,1.4,2.2,2.7c0,0.8,0,1.6,0.1,2.3c0.1,0.8,0.1,1.5,0.1,2.3
			c4,0,6.1-1.4,6.3-4.4c0.2-1.2-0.2-2.5-1.1-3.4c-0.9-0.8-2.8-1.5-5.8-2c1.3-0.2,2.6-0.3,3.9-0.3
			C449.2,115.3,450.7,113.9,450.5,110.9z M491.7,23.7c-0.9-0.9-1.5-1.4-1.6-1.4c-0.2-0.2-0.4-0.1-0.7,0.1c-0.3,0.3-0.4,0.6-0.4,1
			c-0.2,0-0.2,0.1,0,0.4c0.2,0.2,0.3,0.5,0.5,0.7c0.4,0,0.7-0.1,1-0.3C490.9,24,491.3,23.8,491.7,23.7z"/>
		<path class="st0" d="M618.1,3h30.5c0.3,1.1,0.5,2.2,0.5,3.3v51.1c0,0.5,0.1,1,0.1,1.5c0.1,0.6,0,1-0.4,1.2c-2.2,1.3-3,2.4-2.5,3.5
			c0.7,1.3,1.5,2.5,2.5,3.5c0.5,0.7,0.5,1.7-0.1,3c-0.6,1.3-1.6,2.3-2.9,3c-0.4,0.4-0.9,0.6-1.4,0.7c-0.5,0.1-0.9,0.2-1.4,0.4
			c-1.4,0.4-2.7,1-3.8,1.9c-0.5,0.5-0.7,1.8-0.3,3.8c0.2,2.5-0.4,4.4-1.7,5.7c-1.6,1.3-2.2,3.5-1.6,5.4c0.6,1.5,0.9,3.1,1,4.8
			c0.1,1.8,1.2,3.3,2.9,4c0.5,0.4,1,0.8,1.5,1.2l1.5,1.5h6.5v53h72.5v32.6H618.3c0-0.9,0-1.7-0.1-2.6c-0.1-0.9-0.1-1.7-0.1-2.6
			c0-10.3,0-20.7,0.1-31c0.1-10.3,0.1-20.7,0.1-31c0-1.3,0-2.4-0.1-3.5s-0.1-2.2-0.1-3.3c0-0.5,0.2-0.9,0.4-1.4
			c0.3-0.6,0.6-1.1,1-1.6c0-0.2-0.2-0.4-0.5-0.8c-0.3-0.3-0.6-0.7-0.8-1.1c-0.2-0.5-0.2-1.1-0.1-1.6c0.1-0.4,0.1-0.9,0.1-1.4
			L618.1,3L618.1,3z M620,106.9c1,0.3,2.1,0.4,3.2,0.3c0.9-0.7,1.7-1.5,2.3-2.4c-0.7-0.3-1.3-0.7-1.9-1.2c-0.7-0.6-1.4-1.1-2.2-1.5
			c-0.4,1.1-0.6,2-0.8,2.7S620.2,106.1,620,106.9z M625.8,118.9c-0.5,0.6-0.9,1.4-1.1,2.2c0,0.3,0.2,0.6,0.5,0.7
			c0.4,0.1,0.7,0.2,1.1,0.4c0.2-0.3,0.3-0.6,0.5-0.9c0.2-0.3,0.3-0.6,0.3-1C627.3,120,626.9,119.5,625.8,118.9L625.8,118.9z
			 M626,68.3l-0.5,1.1c0.4,0.2,0.8,0.4,1.2,0.5c0.5,0.2,0.9,0.4,1.2,0.6l0.5-0.6L626,68.3z M632,151.2c-0.8-0.4-1.5-0.9-2.2-1.5
			c-0.4-0.4-0.9-0.6-1.4-0.7c-0.4-0.2-0.8,0-1.2,0.4l-1.2,1.2c0.4,0.4,0.8,0.8,1.2,1.4c0.3,0.4,0.8,0.8,1.2,1.1
			c0.4,0.2,0.8,0.1,1.4-0.4C630.6,152.1,631.3,151.6,632,151.2L632,151.2z M633.1,100.9c-2-0.4-3.2-0.4-3.6-0.1
			c-0.7,0.9-1.3,2-1.6,3.1c2,0.4,3.2,0.4,3.6,0.1C632.2,103.1,632.8,102,633.1,100.9L633.1,100.9z M635.9,122.4
			c-0.5-0.4-1-0.7-1.4-1c-0.3-0.3-0.7-0.3-1.1-0.1c-0.2,0-0.7,0.4-1.7,1.4l1,0.9c0.3,0.3,0.6,0.4,1,0.4c0.4,0,0.8-0.2,1-0.6
			C635.1,123,635.5,122.7,635.9,122.4L635.9,122.4z M638.1,111c-2.4-1.6-3.8-1.4-4.1,0.8c0,0.2,0.1,0.4,0.3,0.5l0.5,0.6
			c0.5-0.4,1.1-0.7,1.7-0.9C637,111.6,637.6,111.3,638.1,111L638.1,111z M639.7,53.3l-0.8-1.6c-0.2,0.2-0.4,0.3-0.7,0.4
			c-0.3,0.1-0.4,0.2-0.4,0.4c-0.2,0.2,0,0.7,0.5,1.6c0.2-0.1,0.5-0.2,0.7-0.4C639.3,53.6,639.5,53.4,639.7,53.3L639.7,53.3z
			 M646.3,10.1c-0.3-0.4-0.7-0.7-1.1-1c-0.3-0.3-0.7-0.5-1.1-0.7L643.6,9c-0.2,0.1-0.3,0.3-0.3,0.5c0,0.1-0.1,0.3-0.2,0.3
			c0,0,0,0-0.1,0c0.1,0.9,0.8,1.5,1.7,1.6c0.2,0,0.4-0.1,0.5-0.3L646.3,10.1z M654.1,158.5c-0.5-0.3-0.9-0.7-1.2-1.1
			c-0.2-0.3-0.6-0.5-1-0.5c-0.2-0.2-0.5-0.1-0.8,0.1s-0.5,0.5-0.5,0.7c0.4,1.1,0.7,1.7,1.1,1.9c0.4,0.2,0.8,0.1,1.1-0.1
			C653.1,159.2,653.5,158.9,654.1,158.5z M679.1,165.3c-0.4-2.2-1.7-3.3-4.1-3.3c-2.2,0.4-3.1,1.5-2.8,3.5c0.4,2.2,1.6,3.1,3.6,2.7
			C678,168,679.1,167,679.1,165.3z"/>
		<path class="st0" d="M787,1.4h30.5c0.2,4,0.2,7.9,0.1,11.8s-0.1,7.9-0.1,12.1v48.4h56V1.4h30.8v137.6c-2.1,0.6-4.3,1-6.5,1.4
			c-2.3,0.4-3.9,1.9-4.8,4.6c0.9,0.4,1.7,0.7,2.2,1c0.6,0.3,1.3,0.4,1.9,0.4c0.9,0,1.8-0.2,2.6-0.4c1-0.3,2.5-0.6,4.5-1v43.2h-30.7
			c0-2.7,0-5.4-0.1-8c-0.1-2.7,0-5.3,0.1-8c0.2-2.6,0.2-5.3,0.1-7.9c-0.1-2.7-0.1-5.4-0.1-8.2v-48.4h-55.8v80.5h-30.2
			c1.8-1.8,3.5-3.4,5.1-4.9c1.5-1.4,3.3-3.1,5.1-4.9H787V1.4z M790.3,78.6c0.3-0.7,0.6-1.4,1.1-2c0.3-0.4,0.6-0.8,0.8-1.2
			c-0.1-0.4-0.3-0.8-0.7-1.1c-0.3-0.3-0.8-0.5-1.2-0.6c-0.4,0.2-0.8,0.5-1.1,0.8c-0.3,0.3-0.6,0.7-0.8,1.1c0.1,0.5,0.3,0.9,0.7,1.2
			C789.5,77.4,789.9,78,790.3,78.6z M793.3,131.6c1.1-0.5,2.1-1.1,3.2-1.8c1-0.7,1.8-1.7,2.1-2.9c0-0.4,0-0.8-0.1-1.2
			c-0.1-0.5-0.3-0.9-0.7-1.2c-0.2-0.2-0.5-0.2-1.1-0.1c-0.5,0.1-0.9,0.2-1.4,0.4c-0.9,0.9-1.6,1.9-2.1,3
			C792.7,129,792.7,130.4,793.3,131.6L793.3,131.6z M805.9,78.8c-0.3-0.3-0.7-0.5-1.1-0.6c-0.4,0.9-0.8,1.7-1.4,2.4
			c0.4,0,0.8,0.2,1.1,0.6C805.1,80.5,805.5,79.7,805.9,78.8L805.9,78.8z M821.1,102.2c-0.2-0.2-0.3-0.3-0.4-0.3s-0.2-0.1-0.4-0.3
			c-0.2,0-0.4-0.1-0.5-0.3c-0.3,0.3-0.5,0.6-0.7,0.9c-0.1,0.3-0.2,0.7-0.4,1c0.2,0,0.4,0.1,0.5,0.3c0.1,0.2,0.3,0.2,0.5,0.1
			c0,0,0.1,0,0.1-0.1c0.3-0.1,0.5-0.3,0.7-0.5C820.6,102.8,820.8,102.5,821.1,102.2z M875.5,57.4c2.2,0.4,3.4,0.4,3.7,0
			s0.2-1.5-0.1-3.5L875.5,57.4z"/>
		<path class="st0" d="M1017.7,110.9c0.2,0.4,0.4,0.7,0.6,1.1s0.4,0.7,0.6,1.1c0.4,2.5,0.9,4.1,1.5,4.6c0.6,0.6,2.2,0.6,4.8,0.3
			c0.7-0.1,1.3-0.3,1.9-0.5v2c0,0.8,0.1,1.6,0.3,2.3c-1.5-0.7-2.8-1.4-4-1.9c-1.3-0.5-2.9-0.3-4,0.5c-1,0.7-1.6,1.8-1.6,3
			c0,1.1,0.2,2.2,0.6,3.3c-1.2,1.1-3,1.3-4.4,0.5c-1.6-0.7-3.4-0.6-4.9,0.3c1.8,2.5,3.8,3.7,5.9,3.4c2.2-0.3,4.5-0.2,6.7,0.1
			c-0.4-0.7-0.6-1.2-0.8-1.5c-0.2-0.3-0.4-0.6-0.6-0.9c0.8,0.3,1.6,0.6,2.5,0.8c0.8,0.2,1.7,0.5,2.5,0.8
			c-5.5,19.6-11,38.9-16.5,57.9h-32.9c9.7-31.3,19.3-62.5,28.7-93.4s18.9-62.1,28.4-93.4h32.1c9.9,31.4,19.6,62.5,29.3,93.3
			s19.4,62,29.3,93.5c-5.9,0.4-11.6,0.4-17.2,0.3c-5.6-0.2-11.2-0.2-16.9,0h-68.9c1.3-5.2,2.6-10.4,4-15.4c1.4-5,2.7-10,4-15.1h52.4
			c-5.3-18.1-10.6-36.1-15.9-53.8c-5.3-17.8-10.6-35.7-15.9-53.8h-0.8c-3.1,10.5-6.1,20.9-9.1,31.3s-5.9,20.8-9,31.3
			c-1.3,0.4-2.5,0.7-3.6,1.1s-2.3,0.7-3.6,1.1l-2.6-2.6c-0.8-0.8-0.5-2.3,1-4.5c-0.3,0.2-0.5,0.2-0.8,0.3c-0.3,0-0.6,0.1-0.8,0.3
			c-0.4,0.4-0.7,0.8-1,1.2c-0.3,0.5-0.6,0.9-1,1.5c-0.3,0-0.7,0-1-0.1c-0.3-0.1-0.7,0-1,0.1c-1.3,0.4-2.6,1.1-3.6,2
			c-1.1,1-2.7,1.4-4.1,1c-0.9-0.2-1.5,0.3-1.6,1.5c-0.3,0.9,0.2,2,1.1,2.3c1.3,0.3,2.2,1.4,2.2,2.7c0,0.8,0,1.6,0.1,2.3
			c0.1,0.8,0.1,1.5,0.1,2.3c4,0,6.1-1.4,6.3-4.4c0.2-1.2-0.2-2.5-1.1-3.4c-0.9-0.8-2.8-1.5-5.8-2c1.3-0.2,2.6-0.3,3.8-0.3
			C1016.4,115.3,1017.8,113.9,1017.7,110.9z M1058.9,23.7c-0.9-0.9-1.5-1.4-1.7-1.4c-0.2-0.2-0.4-0.1-0.7,0.1
			c-0.3,0.3-0.4,0.6-0.4,1c-0.2,0-0.2,0.1,0,0.4c0.2,0.2,0.3,0.5,0.5,0.7c0.4,0,0.7-0.1,1-0.3C1058,24,1058.4,23.8,1058.9,23.7
			L1058.9,23.7z"/>
		<path class="st0" d="M1185.2,3h30.5c0.3,1.1,0.5,2.2,0.6,3.3v51.1c0,0.5,0.1,1,0.1,1.5c0.1,0.6,0,1-0.4,1.2
			c-2.2,1.3-3,2.4-2.5,3.5c0.7,1.3,1.5,2.5,2.5,3.5c0.6,0.7,0.5,1.7-0.1,3c-0.6,1.3-1.6,2.3-2.9,3c-0.4,0.4-0.9,0.6-1.4,0.7
			c-0.5,0.1-0.9,0.2-1.4,0.4c-1.4,0.4-2.7,1-3.8,1.9c-0.5,0.5-0.6,1.8-0.3,3.8c0.2,2.5-0.4,4.4-1.7,5.7c-1.6,1.3-2.2,3.5-1.7,5.4
			c0.6,1.5,0.9,3.1,1,4.8c0.1,1.8,1.2,3.3,2.9,4c0.5,0.4,1.1,0.8,1.5,1.2l1.5,1.5h6.6v53h72.5v32.6h-103.3c0-0.9,0-1.7-0.1-2.6
			c-0.1-0.9-0.1-1.7-0.1-2.6c0-10.3,0-20.7,0.1-31c0.1-10.3,0.1-20.7,0.1-31c0-1.3-0.1-2.4-0.1-3.5s-0.1-2.2-0.1-3.3
			c0-0.5,0.2-0.9,0.4-1.4c0.3-0.6,0.6-1.1,1-1.6c0-0.2-0.2-0.4-0.6-0.8c-0.3-0.3-0.6-0.7-0.8-1.1c-0.2-0.5-0.2-1.1-0.1-1.6
			c0.1-0.4,0.1-0.9,0.1-1.4L1185.2,3L1185.2,3z M1187.1,106.9c1,0.3,2.1,0.4,3.2,0.3c0.9-0.7,1.7-1.5,2.3-2.4
			c-0.7-0.3-1.3-0.7-1.9-1.2c-0.7-0.5-1.4-1.1-2.2-1.5c-0.4,1.1-0.6,2-0.8,2.7L1187.1,106.9z M1192.9,118.9
			c-0.5,0.6-0.9,1.4-1.1,2.2c0,0.3,0.2,0.6,0.6,0.7c0.4,0.1,0.7,0.2,1.1,0.4c0.2-0.3,0.3-0.6,0.6-0.9c0.2-0.3,0.3-0.6,0.3-1
			C1194.4,120,1194,119.5,1192.9,118.9L1192.9,118.9z M1193.2,68.3l-0.6,1.1c0.4,0.2,0.8,0.4,1.2,0.5c0.5,0.2,0.9,0.4,1.2,0.6
			l0.6-0.6L1193.2,68.3z M1199.2,151.2c-0.8-0.4-1.5-0.9-2.2-1.5c-0.4-0.4-0.9-0.6-1.4-0.7c-0.4-0.2-0.8,0-1.2,0.4l-1.2,1.2
			c0.4,0.4,0.8,0.8,1.2,1.4c0.3,0.4,0.8,0.8,1.2,1.1c0.4,0.2,0.8,0.1,1.4-0.4C1197.7,152.2,1198.4,151.6,1199.2,151.2L1199.2,151.2z
			 M1200.3,100.9c-2-0.4-3.2-0.4-3.6-0.1c-0.7,0.9-1.3,2-1.7,3.1c2,0.4,3.2,0.4,3.6,0.1C1199.4,103.1,1199.9,102,1200.3,100.9
			L1200.3,100.9z M1203,122.4c-0.5-0.4-1-0.7-1.4-1c-0.3-0.3-0.7-0.3-1.1-0.1c-0.2,0-0.7,0.4-1.6,1.4l1,0.9c0.3,0.3,0.6,0.4,1,0.4
			c0.4,0,0.8-0.2,1-0.6C1202.2,123,1202.6,122.7,1203,122.4L1203,122.4z M1205.2,111c-2.4-1.6-3.8-1.4-4.1,0.8
			c0,0.2,0.1,0.4,0.3,0.5l0.6,0.6c0.5-0.4,1.1-0.7,1.6-0.9C1204.1,111.6,1204.7,111.3,1205.2,111L1205.2,111z M1206.8,53.3l-0.8-1.6
			c-0.2,0.2-0.4,0.3-0.7,0.4c-0.3,0.1-0.4,0.2-0.4,0.4c-0.2,0.2,0,0.7,0.6,1.6c0.2-0.1,0.5-0.2,0.7-0.4
			C1206.4,53.6,1206.6,53.4,1206.8,53.3L1206.8,53.3z M1213.4,10.1c-0.3-0.4-0.7-0.7-1.1-1c-0.3-0.3-0.7-0.5-1.1-0.7l-0.5,0.5
			c-0.2,0.1-0.3,0.3-0.3,0.5c0,0.1-0.1,0.3-0.2,0.3c0,0,0,0-0.1,0c0.1,0.9,0.8,1.5,1.6,1.6c0.2,0,0.4-0.1,0.6-0.3L1213.4,10.1z
			 M1221.2,158.5c-0.5-0.3-0.9-0.7-1.2-1.1c-0.2-0.3-0.6-0.5-1-0.5c-0.2-0.2-0.5-0.1-0.8,0.1s-0.6,0.5-0.6,0.7
			c0.4,1.1,0.7,1.7,1.1,1.9c0.4,0.2,0.8,0.1,1.1-0.1C1220.2,159.2,1220.6,158.9,1221.2,158.5z M1246.2,165.3
			c-0.4-2.2-1.7-3.3-4.1-3.3c-2.2,0.4-3.1,1.5-2.7,3.5c0.4,2.2,1.6,3.1,3.6,2.7C1245.1,168,1246.2,167,1246.2,165.3L1246.2,165.3z"
			/>
		<path class="st0" d="M1343.9,3h30.5c0.3,1.1,0.5,2.2,0.6,3.3v51.1c0,0.5,0.1,1,0.1,1.5c0.1,0.6,0,1-0.4,1.2
			c-2.2,1.3-3,2.4-2.5,3.5c0.7,1.3,1.5,2.5,2.5,3.5c0.6,0.7,0.5,1.7-0.1,3c-0.6,1.3-1.6,2.3-2.9,3c-0.4,0.4-0.9,0.6-1.4,0.7
			c-0.5,0.1-0.9,0.2-1.4,0.4c-1.4,0.4-2.7,1-3.8,1.9c-0.6,0.5-0.6,1.8-0.3,3.8c0.2,2.5-0.4,4.4-1.7,5.7c-1.6,1.3-2.2,3.5-1.7,5.4
			c0.6,1.5,0.9,3.1,1,4.8c0.1,1.8,1.2,3.3,2.9,4c0.5,0.4,1,0.8,1.5,1.2l1.5,1.5h6.6v53h72.5v32.6h-103.3c0-0.9,0-1.7-0.1-2.6
			c-0.1-0.9-0.1-1.7-0.1-2.6c0-10.3,0-20.7,0.1-31c0.1-10.3,0.1-20.7,0.1-31c0-1.3-0.1-2.4-0.1-3.5s-0.1-2.2-0.1-3.3
			c0-0.5,0.2-0.9,0.4-1.4c0.3-0.6,0.6-1.1,1-1.6c0-0.2-0.2-0.4-0.6-0.8c-0.3-0.3-0.6-0.7-0.8-1.1c-0.2-0.5-0.2-1.1-0.1-1.6
			c0.1-0.4,0.1-0.9,0.1-1.4L1343.9,3L1343.9,3z M1345.9,106.9c1,0.3,2.1,0.4,3.2,0.3c0.9-0.7,1.7-1.5,2.3-2.4
			c-0.7-0.3-1.3-0.7-1.9-1.2c-0.7-0.5-1.4-1.1-2.2-1.5c-0.4,1.1-0.7,2-0.8,2.7S1346.1,106.1,1345.9,106.9z M1351.6,118.9
			c-0.5,0.6-0.9,1.4-1.1,2.2c0,0.3,0.2,0.6,0.6,0.7c0.4,0.1,0.7,0.2,1.1,0.4c0.2-0.3,0.3-0.6,0.6-0.9c0.2-0.3,0.3-0.6,0.3-1
			C1353.2,120,1352.7,119.5,1351.6,118.9L1351.6,118.9z M1351.9,68.3l-0.6,1.1c0.4,0.2,0.8,0.4,1.2,0.5c0.5,0.2,0.9,0.4,1.2,0.6
			l0.6-0.6L1351.9,68.3z M1357.9,151.2c-0.8-0.4-1.5-0.9-2.2-1.5c-0.4-0.4-0.9-0.6-1.4-0.7c-0.4-0.2-0.8,0-1.2,0.4l-1.2,1.2
			c0.4,0.4,0.8,0.8,1.2,1.4c0.3,0.4,0.8,0.8,1.2,1.1c0.4,0.2,0.8,0.1,1.4-0.4C1356.4,152.2,1357.2,151.6,1357.9,151.2L1357.9,151.2z
			 M1359,100.9c-2-0.4-3.2-0.4-3.6-0.1c-0.7,0.9-1.3,2-1.7,3.1c2,0.4,3.2,0.4,3.6,0.1C1358.1,103.1,1358.7,102,1359,100.9
			L1359,100.9z M1361.7,122.4c-0.5-0.4-1-0.7-1.4-1c-0.3-0.3-0.7-0.3-1.1-0.1c-0.2,0-0.7,0.4-1.7,1.4l1,0.9c0.3,0.3,0.6,0.4,1,0.4
			c0.4,0,0.8-0.2,1-0.6C1360.9,123,1361.3,122.7,1361.7,122.4L1361.7,122.4z M1363.9,111c-2.4-1.6-3.8-1.4-4.1,0.8
			c0,0.2,0.1,0.4,0.3,0.5l0.6,0.6c0.5-0.4,1.1-0.7,1.6-0.9C1362.9,111.6,1363.4,111.3,1363.9,111L1363.9,111z M1365.6,53.3l-0.8-1.6
			c-0.2,0.2-0.4,0.3-0.7,0.4c-0.3,0.1-0.4,0.2-0.4,0.4c-0.2,0.2,0,0.7,0.6,1.6c0.2-0.1,0.5-0.2,0.7-0.4
			C1365.1,53.6,1365.4,53.4,1365.6,53.3L1365.6,53.3z M1372.2,10.1c-0.3-0.4-0.7-0.7-1.1-1c-0.3-0.3-0.7-0.5-1.1-0.7l-0.6,0.5
			c-0.2,0.1-0.3,0.3-0.3,0.5c0,0.2-0.1,0.3-0.3,0.3c0.1,0.9,0.8,1.5,1.7,1.6c0.2,0,0.4-0.1,0.6-0.3L1372.2,10.1z M1379.9,158.5
			c-0.5-0.3-0.9-0.7-1.2-1.1c-0.2-0.3-0.6-0.5-1-0.5c-0.2-0.2-0.5-0.1-0.8,0.1s-0.6,0.5-0.6,0.7c0.4,1.1,0.7,1.7,1.1,1.9
			c0.4,0.2,0.8,0.1,1.1-0.1C1378.9,159.2,1379.4,158.9,1379.9,158.5z M1404.9,165.3c-0.4-2.2-1.7-3.3-4.1-3.3
			c-2.2,0.4-3.1,1.5-2.7,3.5c0.4,2.2,1.5,3.1,3.6,2.7C1403.8,168,1404.9,167,1404.9,165.3L1404.9,165.3z"/>
	</g>
	<g>
		<path class="st0" d="M0,351.1h29.9c0.4,1.6,0.6,3.2,0.7,4.8c0.1,1.5,0.1,3.1,0.1,4.8c0.3,2.4,0.8,4.8,1.5,7.2
			c0.6,2.3,1.3,4.6,2.1,6.9c0.8,3,1.9,5.9,3.3,8.7c2.3,4.1,5.8,7.3,10,9.3c4.3,2,8.9,3,13.6,3c4.6,0,9.2-0.8,13.5-2.6
			c3.9-1.5,7.2-4.2,9.4-7.8c2-3,3.4-6.3,4.4-9.8c0.4-1.4,0.5-2.8,0.6-4.2c0-1.4,0.9-2.6,2.2-3.1c-0.9-1.3-1.7-2.5-2.5-3.7
			c-0.7-1.2-1.5-2.3-2.2-3.4c-1.2-2.1-2.8-3.9-4.7-5.3c-1.9-1.4-3.9-2.5-6-3.4c-3.1-1.3-6.2-2.4-9.2-3.4s-6.1-2-9.2-3.1
			c-3.5-1.3-6.9-2.5-10.3-3.7c-3.4-1.2-6.7-2.5-10-3.9c-6.1-2.6-11.7-6.3-16.5-11c-4.2-4.2-7.7-9-10.2-14.4
			c-2.4-5.1-3.9-10.5-4.5-16c-0.6-5.4-0.7-10.8-0.1-16.2c0.6-5.1,1.9-10.2,3.8-15c3.5-8.9,8.5-15.7,15-20.5
			c6.5-4.8,14.4-7.9,23.8-9.4c10.8-1.7,21.9-0.8,32.4,2.5c11,3,20.3,10.2,25.8,20.1c3,5.4,5.3,11.2,6.6,17.2
			c1.4,6.2,2.2,12.4,2.3,18.8H85.1l-0.8-3.3c-0.6-1.6-1-3.3-1.4-5c-0.4-1.8-0.9-3.6-1.7-5.3c-2.7-6.5-7.7-10.6-14.8-12.2
			c-3.6-0.7-7.2-0.9-10.8-0.7c-3.7,0.3-7.2,1.2-10.5,2.8c-2.6,1.1-4.9,2.9-6.7,5c-1.9,2.4-3,5.3-3.2,8.3c-0.4,7.3,2.4,12.3,8.2,15.2
			c3.1,1.4,6.2,2.8,9.3,4.1c3.1,1.3,6.2,2.5,9.3,3.6c4.2,1.6,8.4,3.1,12.5,4.5c4.1,1.4,8.2,2.9,12.2,4.5
			c10.6,4.4,18.5,10.6,23.6,18.6c5.1,8.1,8.2,17.6,9.1,28.7c0.4,5.3,0.3,10.5-0.1,15.8c-0.5,5.3-1.7,10.5-3.7,15.5
			c-7,19.4-20.6,30.5-40.9,33.2c-9.8,1.8-19.9,1.6-29.6-0.6c-17.4-3.4-29.6-13.4-36.5-29.9c-2.2-4.9-3.8-10.1-4.8-15.4
			c-1-5.2-1.8-10.4-2.4-15.6c-0.4-2.4-0.6-4.8-0.7-7.2C0.6,356.4,0.4,353.8,0,351.1z M84.6,417.1c-0.5,0.6-1,1.2-1.5,1.8
			c-0.5,0.5-0.7,0.8-0.7,1c0.6,0.9,1.5,1.7,2.5,2.2c0.4-0.1,0.7-0.3,1-0.5c0.5-0.4,0.6-0.7,0.4-1.1c-0.2-0.5-0.4-1-0.7-1.5
			C85.3,418.5,84.9,417.9,84.6,417.1z M101.6,277.9c-0.6-0.4-1-0.6-1.2-0.8c-0.3-0.2-0.6-0.3-1-0.3c-0.2-0.2-0.4-0.1-0.7,0.3
			c-0.2,0.2-0.4,0.5-0.4,0.8c0.4,0.5,0.8,1,1.4,1.4C100.1,279.3,100.7,278.8,101.6,277.9L101.6,277.9z M113.1,386.9
			c-0.4,0.5-0.6,1-0.8,1.2c-0.2,0.3-0.3,0.6-0.3,1c0.3,0.4,0.8,0.7,1.4,0.8c0.2,0.2,0.4,0.1,0.6-0.1c0.2-0.2,0.3-0.4,0.3-0.7
			c0-0.4-0.1-0.7-0.3-1L113.1,386.9z"/>
		<path class="st0" d="M292.5,264.1c-1.8,0.4-2.8,1-2.9,1.9c-0.1,1,0.2,2.1,0.7,3c0.5,0.7,1.1,1.3,1.8,1.8c0.6,0.5,1.7,0.4,3.2-0.1
			c0.5,2.5,1,5,1.5,7.4c0.5,2.4,0.9,4.8,1.2,7.4c0.4,5.3,0.5,9.9,0.4,13.8c-0.2,4.7-1,9.3-2.3,13.8c-1.4,5.5-3.5,10.7-6.2,15.7
			c-2.8,5-6.6,9.4-11.1,12.9c-3.9,3.5-8.5,5.9-13.6,7.1c-5,1.1-10.1,1.8-15.2,2.2c-2.2,0-5.1,0-8.6,0.1c-3.6,0.1-7,0.1-10.4,0.1
			h-14.1v74.2h-30.5c-0.2-0.7-0.3-1.4-0.4-1.9c-0.1-0.6-0.1-1.3-0.1-1.9v-10.9c-0.2-2-0.1-3.9,0.3-5.9c0.4-1.9,2-3.5,4.9-4.8
			c-2.2-0.5-3.8-1-4.9-1.4v-80.2h19.9c5,0,10.2,0,15.5-0.1c5.3-0.1,9.8-0.1,13.4-0.1c2.4,0,4.7-0.1,7-0.3s4.6-0.5,7-0.8
			c5.6-0.4,10.7-3.7,13.5-8.6c0.7-1.2,1.4-2.3,2.3-3.3c0.8-0.9,2.2-1.5,4.3-1.7c-1.5-1.3-2.3-1.9-2.3-1.8s-0.1-0.6-0.1-2.1
			c-0.2-2.4-0.3-4.8-0.4-7.3c-0.1-2.4-0.5-4.7-1.2-7c-2.9-8.8-9.1-13.4-18.4-13.7c-7-0.4-14-0.6-21-0.5c-7,0-14-0.1-21-0.3h-18.4
			v-32.3c0.4,0,0.7,0,1.1-0.1c0.4-0.1,0.7-0.1,1.1-0.1c11.2,0.2,22.3,0.3,33.5,0.4c11.2,0.1,22.3,0.2,33.5,0.4
			c8.8,0,16.2,2.2,22.2,6.5C283.4,249.9,288.5,256.1,292.5,264.1z M201.3,408.7c0.9,0.8,1.9,1.4,3,1.9c0.6,0.2,1.1-0.2,1.6-1.1
			c0.2-0.4,0.3-0.9,0.3-1.4c0.1-0.4-0.2-0.9-0.6-1.1C203.7,405.8,202.2,406.4,201.3,408.7z M229.3,246.7c-0.4,0.5-0.7,1-1,1.4
			c-0.3,0.3-0.4,0.7-0.4,1.1c0,0.2,0.2,0.5,0.7,0.8s0.8,0.5,1,0.3c0.4-0.2,0.7-0.5,1-0.8c0.3-0.4,0.6-0.8,1-1.1
			c-0.3-0.3-0.7-0.6-1.1-0.8C230,247.3,229.7,247,229.3,246.7L229.3,246.7z M238.9,347v-1.4c-0.9-0.2-1.7-0.4-2.5-0.5
			c-0.8-0.2-1.7-0.2-2.5,0c-0.8,0.1-1.4,0.5-1.8,1.2c-0.3,0.8-0.2,1.6,0.1,2.3c0.5,1.4,1.6,1.6,3.3,0.5c0.6-0.4,1.1-0.7,1.6-1.1
			L238.9,347z M243.3,248.3c-0.3-0.1-0.6-0.3-0.8-0.5c-0.1-0.2-0.3-0.3-0.6-0.3c-0.4,0-0.6,0.1-0.7,0.3c-0.2,0.2-0.4,0.4-0.7,0.5
			c0.4,0.9,0.7,1.4,1.1,1.4c0.3,0,0.6-0.1,0.8-0.4C242.7,248.9,243,248.6,243.3,248.3L243.3,248.3z M252.6,339.8
			c0.3-0.9,0.7-1.8,1.1-2.6c0.4-0.6,0.6-1.3,0.8-2c0.2-0.4,0-0.7-0.7-1.1c-0.4-0.3-0.8-0.4-1.2-0.5c-1.5,1.1-2.3,2-2.5,2.7
			c0.1,0.5,0.3,1,0.7,1.4C251.3,338.1,251.9,338.8,252.6,339.8L252.6,339.8z M257.3,325c-0.4,0.5-0.8,1-1.2,1.5
			c-0.5,0.5-0.6,0.9-0.4,1.2c0,0.7,0.6,1.3,1.9,1.6c0,0.2,0.2,0,0.7-0.4c0.4-0.3,0.6-0.7,0.7-1.2c0-0.4-0.2-0.8-0.5-1.1
			C258,326.1,257.6,325.6,257.3,325L257.3,325z M267.2,268.1l-1.1-1.1c-0.6,0.3-1.2,0.6-1.6,1.1l0.8,0.8
			C266,268.8,266.6,268.5,267.2,268.1L267.2,268.1z M275.7,273.8c0.3,1,0.6,2,0.7,3c0,0.8,0.3,1.5,0.7,2.2c0.4,0.4,1,0.6,1.5,0.5
			c0.5,0,1,0.1,1.5,0.3c0.2-0.5,0.4-1.1,0.5-1.8s0.1-1-0.3-1.2c-0.6-0.6-1.3-1.1-2.1-1.5C277.5,274.9,276.6,274.4,275.7,273.8
			L275.7,273.8z M287.3,261.7l-1.9-1.4c-0.3,0-0.6,0.1-0.8,0.4c-0.2,0.3-0.5,0.5-0.8,0.7c0.3,0.1,0.6,0.4,0.7,0.7
			c0.1,0.3,0.4,0.4,0.7,0.4C285.3,262.7,286,262.4,287.3,261.7L287.3,261.7z M286.7,288c-1.6,2-2.5,3.2-2.5,3.5
			c-0.1,1.2,0.8,2.2,1.9,2.4c0.7,0.4,1.5,0.3,2.1-0.3c0.5-0.6,0.6-1.4,0.4-2.2c0-0.5-0.2-1-0.5-1.4
			C287.7,289.6,287.3,288.9,286.7,288L286.7,288z"/>
		<path class="st0" d="M368,238.5h29.4l0.3,186.8H368V238.5z M374,358.2c1.8,1.4,3.5,1.5,5,0.3c0.5-0.3,0.6-0.9,0.2-1.4
			c-0.1-0.1-0.1-0.2-0.2-0.2C377.2,355.2,375.5,355.6,374,358.2L374,358.2z M389.4,416.4c0.4,1.2,0.8,2.3,1.1,3.5
			c0.3-0.2,0.7-0.3,1-0.3c0.3,0,0.5-0.2,0.7-0.5C392.7,417.4,391.8,416.5,389.4,416.4L389.4,416.4z"/>
		<path class="st0" d="M463.6,240.1h30.5c0.3,1.1,0.5,2.2,0.5,3.3v51.1c0,0.5,0.1,1,0.1,1.5c0.1,0.6,0,1-0.4,1.2
			c-2.2,1.3-3,2.4-2.5,3.5c0.7,1.3,1.5,2.5,2.5,3.5c0.5,0.7,0.5,1.7-0.1,3c-0.6,1.3-1.6,2.3-2.9,3c-0.4,0.4-0.9,0.6-1.4,0.7
			c-0.5,0.1-0.9,0.2-1.4,0.4c-1.4,0.4-2.7,1-3.8,1.9c-0.5,0.5-0.6,1.8-0.3,3.8c0.2,2.5-0.4,4.4-1.6,5.7c-1.6,1.3-2.2,3.5-1.6,5.4
			c0.6,1.5,0.9,3.1,1,4.8c0.1,1.8,1.2,3.3,2.9,4c0.5,0.4,1.1,0.8,1.5,1.2l1.5,1.5h6.6v53h72.5v32.6H463.9c0-0.9,0-1.7-0.1-2.6
			c-0.1-0.9-0.1-1.7-0.1-2.6c0-10.3,0-20.7,0.1-31c0.1-10.3,0.1-20.7,0.1-31c0-1.3,0-2.5-0.1-3.5s-0.1-2.2-0.1-3.3
			c0-0.5,0.2-0.9,0.4-1.4c0.3-0.6,0.6-1.1,1-1.6c0-0.2-0.2-0.5-0.5-0.8c-0.3-0.3-0.6-0.7-0.8-1.1c-0.2-0.5-0.2-1.1-0.1-1.6
			c0.1-0.4,0.1-0.9,0.1-1.4L463.6,240.1L463.6,240.1z M465.5,344c1,0.3,2.1,0.4,3.1,0.3c0.9-0.7,1.7-1.5,2.3-2.5
			c-0.7-0.3-1.3-0.7-1.9-1.2c-0.7-0.5-1.4-1.1-2.2-1.5c-0.4,1.1-0.6,2-0.8,2.7L465.5,344z M471.3,356c-0.5,0.6-0.9,1.4-1.1,2.2
			c0,0.3,0.2,0.6,0.5,0.7c0.4,0.1,0.7,0.2,1.1,0.4c0.2-0.3,0.3-0.6,0.5-1c0.2-0.3,0.3-0.6,0.3-1C472.8,357.1,472.4,356.7,471.3,356
			L471.3,356z M471.6,305.4l-0.5,1.1c0.4,0.2,0.8,0.4,1.2,0.5s0.9,0.4,1.2,0.5l0.5-0.5L471.6,305.4z M477.6,388.4
			c-0.8-0.4-1.5-0.9-2.2-1.5c-0.4-0.4-0.9-0.6-1.4-0.7c-0.4-0.2-0.8,0-1.2,0.4s-0.9,0.9-1.2,1.2c0.4,0.4,0.8,0.8,1.2,1.4
			c0.4,0.4,0.8,0.8,1.3,1c0.4,0.2,0.8,0,1.4-0.4C476.1,389.3,476.8,388.8,477.6,388.4L477.6,388.4z M478.7,338.1
			c-2-0.4-3.2-0.4-3.6-0.1c-0.7,0.9-1.3,2-1.6,3.1c2,0.4,3.2,0.4,3.6,0.1C477.8,340.2,478.3,339.2,478.7,338.1L478.7,338.1z
			 M481.4,359.5c-0.5-0.4-1-0.7-1.4-1c-0.3-0.3-0.7-0.3-1.1-0.1c-0.2,0-0.7,0.5-1.6,1.4l1,1c0.3,0.3,0.6,0.4,1,0.4
			c0.4,0,0.8-0.2,1-0.5C480.6,360.2,481,359.8,481.4,359.5z M483.6,348.1c-2.4-1.6-3.8-1.4-4.1,0.8c0,0.2,0.1,0.4,0.3,0.5l0.5,0.5
			c0.5-0.4,1.1-0.7,1.6-1C482.5,348.8,483.1,348.4,483.6,348.1L483.6,348.1z M485.3,290.5l-0.8-1.6c-0.2,0.2-0.4,0.3-0.7,0.4
			c-0.3,0.1-0.4,0.2-0.4,0.4c-0.2,0.2,0,0.7,0.5,1.6c0.2-0.1,0.5-0.2,0.7-0.4C484.8,290.7,485,290.6,485.3,290.5L485.3,290.5z
			 M491.9,247.2c-0.3-0.3-0.7-0.7-1.1-1c-0.3-0.3-0.7-0.5-1.1-0.7l-0.5,0.5c-0.2,0.1-0.3,0.3-0.3,0.5c0,0.2-0.1,0.3-0.3,0.3
			c0.1,0.9,0.8,1.5,1.6,1.6c0.2,0,0.4-0.1,0.5-0.3L491.9,247.2z M499.6,395.7c-0.5-0.3-0.9-0.7-1.2-1.1c-0.2-0.3-0.6-0.5-1-0.5
			c-0.2-0.2-0.5-0.1-0.8,0.1s-0.5,0.5-0.5,0.7c0.4,1.1,0.7,1.7,1.1,1.9c0.4,0.2,0.8,0.1,1.1-0.1C498.6,396.4,499,396,499.6,395.7
			L499.6,395.7z M524.6,402.5c-0.4-2.2-1.7-3.3-4.1-3.3c-2.2,0.4-3.1,1.5-2.7,3.5c0.4,2.2,1.5,3.1,3.6,2.7
			C523.4,405.1,524.5,404.1,524.6,402.5L524.6,402.5z"/>
		<path class="st0" d="M622.3,240.1h30.5c0.3,1.1,0.5,2.2,0.5,3.3v51.1c0,0.5,0.1,1,0.1,1.5c0.1,0.6,0,1-0.4,1.2
			c-2.2,1.3-3,2.4-2.5,3.5c0.7,1.3,1.5,2.5,2.5,3.5c0.5,0.7,0.5,1.7-0.1,3c-0.6,1.3-1.6,2.3-2.9,3c-0.4,0.4-0.9,0.6-1.4,0.7
			c-0.5,0.1-0.9,0.2-1.4,0.4c-1.4,0.4-2.7,1-3.8,1.9c-0.5,0.5-0.6,1.8-0.3,3.8c0.2,2.5-0.4,4.4-1.7,5.7c-1.6,1.3-2.2,3.5-1.7,5.4
			c0.6,1.5,0.9,3.1,1,4.8c0.1,1.8,1.2,3.3,2.9,4c0.5,0.4,1,0.8,1.5,1.2l1.5,1.5h6.6v53h72.5v32.6H622.6c0-0.9,0-1.7-0.1-2.6
			c-0.1-0.9-0.1-1.7-0.1-2.6c0-10.3,0-20.7,0.1-31c0.1-10.3,0.1-20.7,0.1-31c0-1.3,0-2.5-0.1-3.5s-0.1-2.2-0.1-3.3
			c0-0.5,0.2-0.9,0.4-1.4c0.3-0.6,0.6-1.1,1-1.6c0-0.2-0.2-0.5-0.5-0.8c-0.3-0.3-0.6-0.7-0.8-1.1c-0.2-0.5-0.2-1.1-0.1-1.6
			c0.1-0.4,0.1-0.9,0.1-1.4L622.3,240.1L622.3,240.1z M624.2,344c1,0.3,2.1,0.4,3.2,0.3c0.9-0.7,1.7-1.5,2.3-2.5
			c-0.7-0.3-1.3-0.7-1.9-1.2c-0.7-0.5-1.4-1.1-2.2-1.5c-0.4,1.1-0.7,2-0.8,2.7S624.4,343.3,624.2,344z M630,356
			c-0.5,0.6-0.9,1.4-1.1,2.2c0,0.3,0.2,0.6,0.5,0.7c0.4,0.1,0.7,0.2,1.1,0.4c0.2-0.3,0.3-0.6,0.5-1c0.2-0.3,0.3-0.6,0.3-1
			C631.6,357.1,631.1,356.7,630,356L630,356z M630.3,305.4l-0.5,1.1c0.4,0.2,0.8,0.4,1.2,0.5s0.9,0.4,1.2,0.5l0.5-0.5L630.3,305.4z
			 M636.3,388.4c-0.8-0.4-1.5-0.9-2.2-1.5c-0.4-0.4-0.9-0.6-1.4-0.7c-0.4-0.2-0.8,0-1.2,0.4l-1.2,1.2c0.4,0.4,0.8,0.8,1.2,1.4
			c0.3,0.4,0.8,0.8,1.2,1.1c0.4,0.2,0.8,0,1.4-0.4C634.8,389.3,635.5,388.8,636.3,388.4L636.3,388.4z M637.4,338.1
			c-2-0.4-3.2-0.4-3.6-0.1c-0.7,0.9-1.3,2-1.7,3.1c2,0.4,3.2,0.4,3.6,0.1C636.5,340.2,637.1,339.2,637.4,338.1L637.4,338.1z
			 M640.2,359.5c-0.5-0.4-1-0.7-1.4-1c-0.3-0.3-0.7-0.3-1.1-0.1c-0.2,0-0.7,0.5-1.7,1.4l1,1c0.3,0.3,0.6,0.4,1,0.4
			c0.4,0,0.8-0.2,1-0.5C639.4,360.2,639.7,359.8,640.2,359.5z M642.4,348.1c-2.4-1.6-3.8-1.4-4.1,0.8c0,0.2,0.1,0.4,0.3,0.5l0.5,0.5
			c0.5-0.4,1.1-0.7,1.6-1C641.3,348.8,641.8,348.4,642.4,348.1L642.4,348.1z M644.1,290.4l-0.8-1.6c-0.2,0.2-0.4,0.3-0.7,0.4
			c-0.3,0.1-0.4,0.2-0.4,0.4c-0.2,0.2,0,0.7,0.5,1.6c0.2-0.1,0.5-0.2,0.7-0.4C643.6,290.7,643.8,290.5,644.1,290.4z M650.7,247.2
			c-0.3-0.3-0.7-0.7-1.1-1c-0.3-0.3-0.7-0.5-1.1-0.7l-0.5,0.5c-0.2,0.1-0.3,0.3-0.3,0.5c0,0.1-0.1,0.3-0.2,0.3c0,0,0,0-0.1,0
			c0.1,0.9,0.8,1.5,1.7,1.6c0.2,0,0.4-0.1,0.5-0.3L650.7,247.2z M658.4,395.7c-0.5-0.3-0.9-0.7-1.2-1.1c-0.2-0.3-0.6-0.5-1-0.5
			c-0.2-0.2-0.5-0.1-0.8,0.1s-0.5,0.5-0.5,0.7c0.4,1.1,0.7,1.7,1.1,1.9c0.4,0.2,0.8,0.1,1.1-0.1C657.3,396.4,657.8,396,658.4,395.7
			L658.4,395.7z M683.4,402.5c-0.4-2.2-1.7-3.3-4.1-3.3c-2.2,0.4-3.1,1.5-2.7,3.5c0.4,2.2,1.5,3.1,3.6,2.7
			C682.2,405.1,683.3,404.1,683.4,402.5L683.4,402.5z"/>
		<path class="st0" d="M788.5,251l1.1-0.5c2.6,0,4.1-0.3,4.7-1s0.5-2.1,0-4.5c-0.2-0.8-0.3-1.6-0.3-2.5c0.1-0.9,0.6-1.7,1.4-2.2
			c0.7,2.2,1.7,4.4,2.9,6.4c1.3,2,3.3,3.5,5.6,4.2c0.7-1.5,1.4-3,2.1-4.6c0.6-1.6,1.4-3.2,2.3-4.6c0.4-0.4,0.8-0.7,1.2-1.1
			c0.5-0.4,0.9-0.7,1.2-1.1l1.1,1.6c0.3,0.5,0.6,1.1,0.8,1.6c0.2,0.6,0.1,1.2-0.3,1.6c-0.3,0.5-0.5,1-0.5,1.6
			c-0.2,0.6-0.3,1.2-0.3,1.8c0,0.6,0.2,1.1,0.5,1.5c0.4,0.4,1,0.6,1.5,0.5c0.6,0,1.2-0.1,1.8-0.3c0.4-0.2,0.8-0.4,1.2-0.5
			c0.5-0.2,1-0.5,1.5-0.8c0.4,0.9,0.6,1.9,0.8,2.9c0,0.3-0.5,0.5-1.4,0.7c-0.3,0.2-0.7,0.3-1,0.4c-0.3,0.1-0.7,0.3-1,0.4
			c0.6,0.6,1.2,1.2,1.9,1.6l1.7,0.5c0,1.8,0,3.5-0.1,5.2c-0.1,1.7,0,3.5,0.1,5.2c0.4,2.2,0.1,4.5-0.8,6.5c-0.9,2-1.2,4.1-0.8,6.3
			c0.4,2,0.7,4.1,1.1,6.3c0.4,2.1,0.5,4.2,0.5,6.3v26.6c0.1,0,0.3,0,0.4,0.1c0.1,0.1,0.3,0.1,0.7,0.1c2.8-3.3,5.4-6.6,8-10.1
			c2.6-3.4,5.2-6.9,8-10.3c2.6-3.3,5.2-6.6,7.8-10.1s5.3-6.9,7.8-10.3s5.2-6.9,8-10.3s5.5-7,8.2-10.6c4.2,4.7,8.8,5.1,13.7,1.1
			c0.2,1.3,0.3,2.5,0.3,3.8c0,1.3,0.2,2.6,0.5,3.8c2.4-1.4,4.6-2.8,6.7-3.9s4.3-2.4,6.5-3.7c-2-3.4-1.8-6.9,0.5-10.3
			c1.7-2.7,0.8-4.2-2.5-4.4h-4.1c0.2-2.5,1.7-3.8,4.7-3.8H917l0.5,0.5v0.5c0,0.2-0.1,0.4-0.3,0.5c-0.3,0.6-0.6,1.1-1.1,1.6
			c-8.8,11.6-17.5,23.2-26.2,34.7s-17.4,23.1-26.2,34.9v0.3c0,0.2,0,0.3-0.1,0.3s-0.1,0.1-0.1,0.3c5.5,11.6,11,23.2,16.5,34.8
			c5.5,11.6,11,23.3,16.5,35.1c-1.8,2-3.6,3.9-5.2,5.6c-1.7,1.7-3.3,3.5-4.9,5.3c0.2,0.2,0.3,0.3,0.4,0.5c0.1,0.2,0.2,0.4,0.4,0.5
			c1-0.5,2-1.2,2.8-2c0.7-0.8,1.5-1.7,2.3-2.6c0.8-0.9,1.7-1.6,2.6-2.3c1.1-0.7,2.3-1,3.6-1c1.1,2.5,2.6,5.7,4.4,9.5
			c1.5,3.3,3.3,7.3,5.6,12.2c2.3,4.9,5,10.5,8.1,16.9l-35.2,0.5c-6.6-14.1-12.3-26.5-17.2-37.1c-4.9-10.6-8.9-19.5-12.2-26.8
			c-3.8-8.3-7.1-15.5-9.9-21.5c-1.2,1.2-2.3,2.5-3.3,3.8c-2.7,3.6-5.4,7.2-8.1,10.6c-2.7,3.4-5.5,7-8.4,10.6c-2.1,2.8-3.2,6.3-3,9.8
			v50.9c-5.3,0-10.5,0-15.4,0.1c-4.9,0.1-10,0-15.1-0.1V285.5c1-0.2,2-0.5,3-0.8c1.1-0.4,1.8-1.5,1.7-2.7c0-1.5-0.5-2.3-1.5-2.6
			c-1.1-0.3-2.3-0.3-3.4-0.1v-13.6c1-0.2,2-0.5,3-0.8c2.6,3.8,4.7,5.1,6.3,3.8c1.3-0.8,2-2.3,1.9-3.8c-0.2-2.4-2.4-3.6-6.6-3.8
			c-0.9-1.6-1.7-3.2-2.3-4.9C790.2,254.5,789.4,252.8,788.5,251z M795.1,277.4c0.8-0.8,1.6-1.5,2.5-2.2c0.7-0.5,1.3-1.1,1.7-1.9
			c0.9-0.6,1.1-1.8,0.5-2.7c-0.4-0.4-0.9-0.6-1.4-0.7c-0.5-0.1-1,0-1.4,0.4c-0.9,0.5-1.7,1.2-2.5,1.9l-2.5,2.5
			c0.6,0.5,1.2,1,1.8,1.5L795.1,277.4z M798.4,260.2c0.1-0.5,0.3-0.9,0.5-1.4c-0.5-0.5-1.1-0.9-1.8-1.1c-1.1-0.1-2.2,0.1-3.2,0.5
			l2.3,1C796.9,259.5,797.6,259.9,798.4,260.2L798.4,260.2z M795.1,317.6c-0.3,0.4-0.4,0.9-0.5,1.4c0,0.7,0.3,1.1,0.8,1.1
			c0.4,0.1,0.8-0.2,0.8-0.6c0-0.1,0-0.1,0-0.2C795.9,318.7,795.5,318.1,795.1,317.6z M814.6,420.1c-0.5-0.2-1-0.5-1.5-0.8
			c-0.3-0.2-0.6-0.3-1-0.3c-0.7,0.3-1.2,1.1-1.1,1.9c-0.2,0-0.1,0.1,0.3,0.4c0.3,0.3,0.7,0.4,1.1,0.4c0.4-0.2,0.7-0.4,1-0.7
			C813.7,420.7,814.1,420.4,814.6,420.1L814.6,420.1z M852.5,284.7c-0.4,0.5-0.7,1-1,1.4c-0.3,0.3-0.4,0.7-0.4,1.1
			c-0.2,0.2,0,0.5,0.4,0.8c0.3,0.3,0.8,0.4,1.2,0.3c0.3-0.2,0.6-0.4,0.8-0.7c0.2-0.3,0.5-0.7,0.8-1L852.5,284.7z M873.3,402.5
			c1.1-0.1,2.2-0.4,3.2-1c0.4-0.8,0.7-1.7,0.7-2.6c-0.8,0.6-1.5,1.2-2.2,1.9L873.3,402.5z M884.9,257.8c-1.3-0.9-2.5-1.9-3.7-3
			c-1.2-1.1-2.5-2.2-4-3.3l1.1-0.5c0.2-0.2,0.5-0.4,0.8-0.5c1,1,2.4,1.7,3.8,2c1.5,0.3,3,0.6,4.7,1c0.4-1,0.7-2,1-3
			c0.3-1.1,0.6-2.3,1-3.5c-1.5-0.4-2.7-0.6-3.8-0.8c-1.2-0.2-2.4-0.5-3.6-0.8c0.3-0.7,0.7-1.3,1.1-1.9c0.3-0.5,0.4-1.1,0.3-1.6
			c0-0.4-0.3-0.8-0.8-1.2c-0.7-0.6-1.3-1.1-1.9-1.8h6c-0.4,4.2,1.3,6.5,4.9,7.1c0.2,1.4,0.3,2.9,0.3,4.4c0,1.5,0.1,2.9,0.3,4.4
			L884.9,257.8z"/>
		<path class="st0" d="M980.5,240.1h30.5c0.3,1.1,0.5,2.2,0.5,3.3v51.1c0,0.5,0.1,1,0.1,1.5c0.1,0.7-0.1,1.1-0.4,1.2
			c-2.2,1.3-3,2.4-2.5,3.5c0.7,1.3,1.5,2.5,2.5,3.5c0.5,0.7,0.5,1.7-0.1,3c-0.6,1.3-1.6,2.3-2.9,3c-0.4,0.4-0.9,0.6-1.4,0.7
			c-0.5,0.1-0.9,0.2-1.4,0.4c-1.4,0.4-2.7,1-3.8,1.9c-0.5,0.5-0.6,1.8-0.3,3.8c0.2,2.5-0.4,4.4-1.7,5.7c-1.6,1.3-2.2,3.5-1.7,5.4
			c0.6,1.5,0.9,3.1,1,4.8c0.1,1.8,1.2,3.4,2.9,4c0.5,0.4,1,0.8,1.5,1.2l1.5,1.5h6.6v53h72.5v32.6H980.7c0-0.9,0-1.7-0.1-2.6
			c-0.1-0.9-0.1-1.7-0.1-2.6c0-10.3,0-20.7,0.1-31c0.1-10.3,0.1-20.7,0.1-31c0-1.3,0-2.5-0.1-3.5s-0.1-2.2-0.1-3.3
			c0-0.5,0.2-0.9,0.4-1.4c0.3-0.6,0.6-1.1,1-1.6c0-0.2-0.2-0.5-0.5-0.8c-0.3-0.3-0.6-0.7-0.8-1.1c-0.2-0.5-0.2-1.1-0.1-1.6
			c0.1-0.4,0.1-0.9,0.1-1.4L980.5,240.1L980.5,240.1z M982.4,344c1,0.3,2.1,0.4,3.2,0.3c0.9-0.7,1.7-1.5,2.3-2.5
			c-0.7-0.3-1.3-0.7-1.9-1.2c-0.7-0.5-1.4-1.1-2.2-1.5c-0.4,1.1-0.6,2-0.8,2.7S982.5,343.3,982.4,344z M988.1,356
			c-0.5,0.6-0.9,1.4-1.1,2.2c0,0.3,0.2,0.6,0.5,0.7c0.4,0.1,0.7,0.2,1.1,0.4c0.2-0.3,0.3-0.6,0.5-1c0.2-0.3,0.3-0.6,0.3-1
			C989.7,357.1,989.2,356.7,988.1,356L988.1,356z M988.4,305.4l-0.5,1.1c0.4,0.2,0.8,0.4,1.2,0.5s0.9,0.4,1.2,0.5l0.5-0.5
			L988.4,305.4z M994.4,388.4c-0.8-0.4-1.5-0.9-2.2-1.5c-0.4-0.4-0.9-0.6-1.4-0.7c-0.4-0.2-0.8,0-1.2,0.4s-0.9,0.9-1.2,1.2
			c0.4,0.4,0.8,0.8,1.2,1.4c0.3,0.4,0.8,0.8,1.2,1.1c0.4,0.2,0.8,0,1.4-0.4C992.9,389.3,993.7,388.8,994.4,388.4L994.4,388.4z
			 M995.5,338.1c-2-0.4-3.2-0.4-3.6-0.1c-0.7,0.9-1.3,2-1.7,3.1c2,0.4,3.2,0.4,3.6,0.1C994.6,340.3,995.2,339.2,995.5,338.1
			L995.5,338.1z M998.3,359.6c-0.5-0.4-1-0.7-1.4-1c-0.3-0.3-0.7-0.3-1.1-0.1c-0.2,0-0.7,0.5-1.6,1.4l1,1c0.3,0.3,0.6,0.4,1,0.4
			c0.4,0,0.8-0.2,1-0.5C997.5,360.2,997.9,359.8,998.3,359.6L998.3,359.6z M1000.5,348.1c-2.4-1.6-3.8-1.4-4.1,0.8
			c0,0.2,0.1,0.4,0.3,0.5l0.5,0.5c0.5-0.4,1.1-0.7,1.7-1C999.4,348.8,1000,348.5,1000.5,348.1L1000.5,348.1z M1002.1,290.5l-0.8-1.6
			c-0.2,0.2-0.4,0.3-0.7,0.4c-0.3,0.1-0.4,0.2-0.4,0.4c-0.2,0.2,0,0.7,0.5,1.6c0.2-0.1,0.5-0.2,0.7-0.4
			C1001.6,290.7,1001.9,290.6,1002.1,290.5L1002.1,290.5z M1008.7,247.2c-0.3-0.3-0.7-0.7-1.1-1c-0.3-0.3-0.7-0.5-1.1-0.7l-0.5,0.5
			c-0.2,0.1-0.3,0.3-0.3,0.5c0,0.1-0.1,0.3-0.2,0.3c0,0,0,0-0.1,0c0.2,0.8,0.8,1.5,1.7,1.6c0.2,0,0.4-0.1,0.5-0.3L1008.7,247.2z
			 M1016.4,395.7c-0.5-0.3-0.9-0.7-1.2-1.1c-0.2-0.3-0.6-0.5-1-0.5c-0.2-0.2-0.5-0.1-0.8,0.1s-0.5,0.5-0.5,0.7
			c0.4,1.1,0.7,1.7,1.1,1.9c0.4,0.2,0.8,0.1,1.1-0.1C1015.4,396.4,1015.9,396,1016.4,395.7L1016.4,395.7z M1041.4,402.5
			c-0.4-2.2-1.7-3.3-4.1-3.3c-2.2,0.4-3.1,1.5-2.8,3.5c0.4,2.2,1.6,3.1,3.6,2.7C1040.3,405.1,1041.4,404.1,1041.4,402.5
			L1041.4,402.5z"/>
		<path class="st0" d="M1148.8,238.5h30.2c0,0.4,0,2.5,0.1,6.4s0.1,9,0.1,15.2s0,13.3,0.1,21.1s0.1,15.7,0.1,23.8v43.4
			c0,4.2,0.1,8.3,0.3,12.2c0.2,4.1,0.7,8.2,1.4,12.2c0.6,4.5,2.4,8.7,5.2,12.2c2.6,3.3,5.9,6,9.8,7.9c3.9,1.8,8.1,2.7,12.4,2.6
			c4.5-0.1,9-1.3,13-3.4c6.1-2.9,10.4-8.8,11.3-15.5c0.7-3.5,1.2-7.1,1.5-10.7c0.3-3.5,0.4-7.1,0.4-10.7c0.2-6.7,0.3-13.4,0.3-20
			V239l30.5-0.5v96c0,12.5-0.1,22.9-0.3,31.3c0,4.1-0.3,8.3-1,12.4c-0.7,4.1-1.4,8.2-2.3,12.4c-2.7,11.4-8,20.3-15.8,26.6
			c-7.8,6.3-17.5,10-29.3,10.9c-4.3,0.4-8.7,0.4-13,0.3c-4.3-0.2-8.5-0.6-12.8-1.4c-6.5-0.9-12.8-3.3-18.3-7.1
			c-5.4-3.8-9.9-8.6-13.3-14.1c-3-4.5-5.3-9.5-6.7-14.7c-1.4-5.2-2.3-10.4-2.6-15.8c-0.4-5.8-0.7-11.6-1-17.4
			c-0.3-5.8-0.4-11.6-0.4-17.4L1148.8,238.5L1148.8,238.5z M1171.9,408.8c0.2-0.8,0.5-1.5,0.8-2.2c0-0.5-0.4-0.8-1.1-0.8
			c-0.2,0.2-0.4,0.4-0.7,0.5c-0.3,0.2-0.4,0.4-0.4,0.5C1170.5,407.2,1170.9,407.8,1171.9,408.8L1171.9,408.8z M1172.7,304.9
			c0.1,1.2,0.4,2.4,0.8,3.5c0.9,0,1.5-0.1,1.7-0.3C1175.9,306.7,1175.1,305.6,1172.7,304.9L1172.7,304.9z M1196.3,410.7
			c2.2,1.3,3.9,1.4,5.2,0.3c0.2-0.3,0.3-0.6,0.3-1c0-0.4-0.2-0.8-0.6-1C1199.4,407.7,1197.8,408.3,1196.3,410.7L1196.3,410.7z"/>
		<path class="st0" d="M1351.8,425.6c-0.7-3.3-2.7-4.6-5.8-4.1c-0.7,0.2-1.5,0.1-2.2-0.3l-2.2-1.1c-1.5,0.9-1.9,1.8-1.2,2.6
			c0.6,0.8,1,1.6,1.2,2.6h-3.5V393c1.5-0.3,3.1-0.5,4.7-0.5c1.7,0.1,3.3,0.9,4.4,2.2c2.8-1.9,6.1-2.8,9.5-2.6c3.2,0.3,6.4,0.6,9.5,1
			c0.7,0,1.3,0.1,1.9,0.3c0.7,0.2,1.5,0.1,2.2-0.3c0.8-0.3,1.7-0.5,2.6-0.5h2.6c4.8-0.2,9.6-0.2,14.4-0.1s9.8-0.1,14.7-0.4
			c10.8-0.3,17.2-5.8,19.2-16.5c0.4-2.7,0.5-5.4,0.4-8.1c-0.1-2.7-0.6-5.3-1.5-7.9c-2.6-8.3-7.9-12.8-15.9-13.5
			c-2.7-0.4-5.5-0.6-8.2-0.8c-2.8-0.2-5.5-0.3-8.2-0.3c-7.7-0.2-15.4-0.2-23.1-0.1c-7.7,0.1-15.4,0.1-23.1,0.1h-6v-32.1
			c1.4-0.2,2.7-0.3,4.1-0.3c5.9,0,11.6,0,17.2-0.1c5.6-0.1,11.3,0,17.2,0.1c3.6,0.2,7.2,0.1,10.8-0.1c3.6-0.3,7.2-0.3,10.8-0.1
			c2.5,0.2,4.9-0.1,7.3-0.8c2.3-0.7,4.6-1.7,6.7-2.7c0.7-0.3,1.3-0.9,1.7-1.6c0.4-0.8,0.9-1.5,1.4-2.2c2.4-3.5,3.7-7.6,3.8-11.8
			c0-4.2-0.8-8.4-2.2-12.3c-1.7-4.8-5.9-8.3-11-9c-3.5-0.5-6.9-0.8-10.4-0.8h-57.4c-0.4-5.4-0.4-10.8-0.1-16.2
			c0.3-5.3,0.3-10.8,0.1-16.5c1.5,0,2.8,0,4.1-0.1c1.4-0.1,2.8,0,4.1,0.1c1.2,0.1,2.2,0.7,3,1.6c2.2,1.8,4.1,1.8,5.8,0
			c0.5-0.7,1.2-1.3,2.1-1.5c0.8-0.1,1.6-0.1,2.3-0.1c8.1,0.2,16,0.3,23.9,0.3c7.9,0,15.8,0.2,23.9,0.5c21.4,1.1,34.8,12.1,40.1,33
			c1.4,6.2,2,12.7,1.5,19.1c-0.5,6.4-2.2,12.7-5.1,18.5c-3.2,6.6-8,12.2-14,16.3c12.1,5.6,20,14.7,23.6,27.4
			c-1.8,2.1-3.8,4.1-5.9,5.8c-2.1,1.7-3.7,4-4.5,6.6c2-1.3,3.8-2.9,5.2-4.8c1.6-1.9,3.8-3.2,6.3-3.4c0.9,2.9,1.4,5.9,1.7,9
			c0.2,3,0.1,6-0.3,9c-0.5,9-2.8,17.8-6.9,25.8c-3.1,6.6-7.8,12.3-13.6,16.7c-5.6,4.1-12.5,6.3-20.7,6.7
			c-10.4,0.4-20.8,0.5-31.2,0.5C1373.2,425.4,1362.6,425.5,1351.8,425.6z M1350.7,260.6c-0.4-1.5-0.6-2.8-0.8-4
			c-0.2-1.1-0.4-2.1-0.8-3.1c-0.3-0.6-0.8-1.1-1.4-1.4c-0.6-0.3-1.3-0.4-1.9-0.3c-0.5,0.3-1,0.7-1.5,1.1c-0.6,0.5-1,1-1,1.4
			c0.4,1.1,0.7,2.1,1.1,3.1c0.3,1,0.9,1.9,1.7,2.6c0.5,0.4,1.3,0.6,1.9,0.4C1348.8,260.3,1349.7,260.4,1350.7,260.6L1350.7,260.6z
			 M1350.9,244.8c-0.3,0.5-0.7,0.9-1.2,1.2c-0.4,0.2-0.6,0.5-0.7,1c0,0.4,0.2,0.8,0.6,1.1c0.4,0.4,0.7,0.7,1.1,1.1
			c0.8-0.4,1.5-1.1,1.9-1.9C1352.1,246.4,1351.6,245.5,1350.9,244.8L1350.9,244.8z M1350.9,399c-0.4,0.3-0.7,0.7-1,1.1
			c-0.2,0.2-0.4,0.5-0.4,0.8c0.3,0.3,0.6,0.5,1,0.7c0.4,0.2,0.7,0.4,1,0.7c0.1-0.3,0.3-0.6,0.6-0.8c0.2-0.2,0.3-0.5,0.3-0.8
			c0-0.3-0.2-0.5-0.4-0.7C1351.6,399.6,1351.3,399.3,1350.9,399L1350.9,399z M1352,420.7c1.8-0.7,2.1-1.9,0.8-3.5
			c-0.6-0.4-1.3-0.4-1.9,0C1349.8,418.8,1350.2,420,1352,420.7L1352,420.7z M1378.7,244.5c-1.4,0-2.8,0.5-3.8,1.5
			c-1,0.8-1.6,2.1-1.6,3.4c0.1,1.8,0.8,3.5,2.1,4.8c1,1.4,2.6,2.2,4.3,2.3c1.3-0.1,2.6-0.7,3.6-1.6c0.9-0.9,1.4-2,1.4-3.3
			c-0.1-1.8-0.7-3.5-1.9-4.8C1381.2,245.3,1379.9,244.5,1378.7,244.5z M1408.3,261.4c0.3-0.5,0.7-0.9,1.1-1.4
			c0.3-0.3,0.6-0.7,0.8-1.1c0.2,0,0.1-0.2-0.3-0.7c-0.2-0.4-0.6-0.6-1.1-0.7c-0.4,0.2-0.8,0.4-1.1,0.7c-0.4,0.3-0.8,0.6-1.1,1
			C1407.3,259.8,1407.9,260.6,1408.3,261.4L1408.3,261.4z M1418.8,314.6c-0.4,0.5-0.7,1-1,1.4c-0.3,0.4-0.6,0.7-1,1.1l1,1
			c0.3,0.3,0.6,0.4,1,0.4c1.1-0.4,1.6-0.9,1.6-1.6c0.2-0.4,0.1-0.7-0.4-1C1419.5,315.5,1419.1,315.1,1418.8,314.6L1418.8,314.6z
			 M1429.2,374.8c1,0,1.9-0.3,2.8-0.7c0.6-0.8,1.1-1.6,1.4-2.6L1429.2,374.8z M1433.6,254.3c-0.3-0.3-0.7-0.6-1.1-0.8
			c-0.4-0.2-0.8-0.5-1.1-0.8l-0.8,1.4c0,0.5,0.4,1,1.1,1.4C1432.4,255.1,1433,254.7,1433.6,254.3L1433.6,254.3z M1449.3,352.8
			c-2.2-1.3-3.7-0.9-4.4,1.1c-0.2,0.4-0.2,0.8,0,1.2c0.1,0.4,0.4,0.7,0.8,1c1.7,0.5,2.9-0.3,3.8-2.5v-0.3
			C1449.4,353.2,1449.2,352.9,1449.3,352.8L1449.3,352.8z"/>
		<path class="st0" d="M1539.9,425.6c-0.7-3.3-2.7-4.6-5.8-4.1c-0.7,0.2-1.5,0.1-2.2-0.3l-2.2-1.1c-1.5,0.9-1.9,1.8-1.2,2.6
			c0.6,0.8,1,1.6,1.2,2.6h-3.6V393c1.5-0.3,3.1-0.5,4.7-0.5c1.7,0.1,3.3,0.9,4.4,2.2c2.8-1.9,6.1-2.8,9.5-2.6c3.2,0.3,6.4,0.6,9.5,1
			c0.6,0,1.3,0.1,1.9,0.3c0.7,0.2,1.5,0.1,2.2-0.3c0.8-0.3,1.7-0.5,2.6-0.5h2.6c4.8-0.2,9.6-0.2,14.4-0.1c4.9,0.1,9.8-0.1,14.7-0.4
			c10.8-0.3,17.2-5.8,19.2-16.5c0.4-2.7,0.5-5.4,0.4-8.1c-0.1-2.7-0.6-5.3-1.5-7.9c-2.6-8.3-7.9-12.8-15.9-13.5
			c-2.7-0.4-5.5-0.6-8.2-0.8s-5.5-0.3-8.2-0.3c-7.7-0.2-15.4-0.2-23.1-0.1s-15.4,0.1-23.1,0.1h-6v-32.1c1.4-0.2,2.7-0.3,4.1-0.3
			c5.9,0,11.6,0,17.2-0.1s11.3,0,17.2,0.1c3.6,0.2,7.2,0.1,10.8-0.1c3.6-0.3,7.2-0.3,10.8-0.1c2.5,0.2,4.9-0.1,7.3-0.8
			c2.3-0.7,4.6-1.7,6.7-2.7c0.7-0.3,1.3-0.9,1.7-1.6c0.4-0.8,0.8-1.5,1.4-2.2c2.4-3.4,3.8-7.5,3.8-11.8c0-4.2-0.8-8.4-2.2-12.3
			c-1.7-4.8-5.9-8.3-11-9c-3.5-0.5-6.9-0.8-10.4-0.8h-57.4c-0.4-5.4-0.4-10.8-0.1-16.2c0.3-5.3,0.3-10.8,0.1-16.5
			c1.5,0,2.8,0,4.1-0.1c1.4-0.1,2.8,0,4.1,0.1c1.2,0.1,2.2,0.7,3,1.6c2.2,1.8,4.1,1.8,5.8,0c0.5-0.7,1.2-1.3,2.1-1.5
			c0.8-0.1,1.6-0.1,2.3-0.1c8,0.2,16,0.3,23.9,0.3c7.9,0,15.8,0.2,23.9,0.5c21.4,1.1,34.8,12.1,40.1,33c1.5,6.2,2,12.7,1.5,19.1
			c-0.5,6.4-2.2,12.7-5.1,18.5c-3.1,6.6-8,12.2-14,16.3c12.1,5.6,20,14.7,23.6,27.4c-1.8,2.1-3.8,4.1-5.9,5.8
			c-2.1,1.7-3.7,4-4.5,6.6c2-1.3,3.8-2.9,5.2-4.8c1.6-1.9,3.8-3.2,6.3-3.4c0.9,2.9,1.4,5.9,1.7,9c0.2,3,0.1,6-0.3,9
			c-0.5,9-2.8,17.8-6.9,25.8c-3.1,6.6-7.8,12.3-13.6,16.7c-5.6,4.1-12.5,6.3-20.7,6.7c-10.4,0.4-20.8,0.5-31.2,0.5
			C1561.3,425.4,1550.7,425.5,1539.9,425.6z M1538.8,260.6c-0.4-1.5-0.7-2.8-0.8-4c-0.2-1.1-0.4-2.1-0.8-3.1
			c-0.3-0.6-0.7-1.1-1.4-1.4c-0.6-0.3-1.3-0.4-1.9-0.3c-0.5,0.3-1,0.7-1.5,1.1c-0.6,0.5-1,1-1,1.4c0.4,1.1,0.7,2.1,1.1,3.1
			c0.4,1,0.9,1.9,1.7,2.6c0.5,0.4,1.3,0.6,1.9,0.4C1536.9,260.3,1537.9,260.4,1538.8,260.6L1538.8,260.6z M1539.1,244.8
			c-0.3,0.5-0.7,0.9-1.2,1.2c-0.4,0.2-0.7,0.5-0.7,1c0,0.4,0.2,0.8,0.6,1.1l1.1,1.1c0.8-0.4,1.5-1.1,1.9-1.9
			C1540.3,246.4,1539.7,245.5,1539.1,244.8L1539.1,244.8z M1539.1,399c-0.4,0.3-0.7,0.7-1,1.1c-0.2,0.2-0.4,0.5-0.4,0.8
			c0.3,0.3,0.6,0.5,1,0.7s0.7,0.4,1,0.7c0.1-0.3,0.3-0.6,0.6-0.8c0.4-0.4,0.4-1,0-1.4c0,0-0.1-0.1-0.1-0.1
			C1539.7,399.6,1539.4,399.3,1539.1,399L1539.1,399z M1540.2,420.7c1.8-0.7,2.1-1.9,0.8-3.5c-0.3-0.2-0.6-0.3-1-0.3
			c-0.4,0-0.7,0-1,0.3C1537.9,418.8,1538.3,420,1540.2,420.7L1540.2,420.7z M1566.8,244.5c-1.4,0-2.8,0.5-3.8,1.5
			c-1,0.8-1.6,2.1-1.7,3.4c0.1,1.8,0.8,3.5,2.1,4.8c1,1.4,2.6,2.2,4.3,2.3c1.3-0.1,2.6-0.7,3.6-1.6c0.9-0.9,1.4-2,1.4-3.3
			c-0.1-1.8-0.7-3.4-1.9-4.8C1569.3,245.3,1568.1,244.5,1566.8,244.5z M1596.4,261.4c0.3-0.5,0.7-0.9,1.1-1.4
			c0.3-0.3,0.6-0.7,0.8-1.1c0.2,0,0.1-0.2-0.3-0.7c-0.2-0.4-0.6-0.6-1.1-0.7c-0.4,0.2-0.8,0.4-1.1,0.7c-0.4,0.3-0.8,0.6-1.1,1
			C1595.5,259.8,1596,260.6,1596.4,261.4L1596.4,261.4z M1606.9,314.6c-0.4,0.5-0.7,1-1,1.4c-0.3,0.4-0.6,0.7-1,1.1
			c0.4,0.4,0.7,0.7,1,1c0.3,0.3,0.6,0.4,1,0.4c1.1-0.4,1.7-0.9,1.7-1.6c0.2-0.4,0-0.7-0.4-1C1607.6,315.5,1607.2,315.1,1606.9,314.6
			L1606.9,314.6z M1617.3,374.8c1,0,1.9-0.3,2.8-0.7c0.6-0.7,1.1-1.6,1.4-2.6L1617.3,374.8z M1621.7,254.3c-0.3-0.3-0.7-0.6-1.1-0.8
			c-0.4-0.2-0.8-0.5-1.1-0.8l-0.8,1.4c0,0.5,0.4,1,1.1,1.4C1620.5,255.1,1621.1,254.7,1621.7,254.3L1621.7,254.3z M1637.4,352.8
			c-2.2-1.3-3.7-0.9-4.4,1.1c-0.2,0.4-0.2,0.8,0,1.2c0.1,0.4,0.4,0.7,0.8,1c1.7,0.5,2.9-0.3,3.8-2.5v-0.3
			C1637.5,353.2,1637.4,352.9,1637.4,352.8L1637.4,352.8z"/>
	</g>
</g>
</svg>
